<?xml version="1.0" encoding="utf-8"?>
<!-- Generator: Adobe Illustrator 19.0.0, SVG Export Plug-In . SVG Version: 6.00 Build 0)  -->
<svg version="1.1" id="Layer_1" xmlns="http://www.w3.org/2000/svg" xmlns:xlink="http://www.w3.org/1999/xlink" x="0px" y="0px"
	 viewBox="0 0 45 52" style="enable-background:new 0 0 45 52;" xml:space="preserve">
<style type="text/css">
	.st0{stroke:#010101;stroke-miterlimit:10;}
</style>
<g>
	<path class="st0" d="M42.9,28.8c-0.3,0-0.5,0-0.8-0.1c0-0.1,0-0.2,0-0.4c0-7.3,0-14.7,0-22c0-1.3,0-2.6,0-3.9
		c0-0.8-0.4-1.1-1.2-1.1c-5.6,0-11.3,0-16.9,0c-7.1,0-14.3,0-21.4,0c-0.8,0-1.2,0.4-1.2,1.2c0,6.9,0,13.8,0,20.7c0,7.7,0,15.3,0,23
		c0,1.1,0,2.1,0,3.2c0,0.8,0.4,1.2,1.2,1.2c6,0,12,0,18,0c6.8,0,13.6,0,20.3,0c0.8,0,1.2-0.4,1.2-1.2c0-5.2,0-10.4,0-15.6
		c0-0.3,0.1-0.6,0.3-0.8c0.2-0.1,0.3-0.3,0.5-0.5c0,0.1,0,0.2,0,0.3c0,4.6,0,9.2,0,13.8c0,0.9,0,1.8,0,2.7c0,1.1-0.9,1.9-2,1.9
		c-5.8,0-11.6,0-17.3,0c-7,0-14,0-21.1,0c-1.1,0-2-0.8-2-2c0-6.8,0-13.7,0-20.5c0-7.9,0-15.8,0-23.6c0-1,0-1.9,0-2.9
		c0-1.2,0.9-2,2-2c5.4,0,10.8,0,16.2,0c7.4,0,14.8,0,22.2,0c0.8,0,1.4,0.3,1.8,1c0.1,0.3,0.2,0.7,0.2,1c0,2,0,4.1,0,6.1
		c0,5,0,10.1,0,15.1C42.9,25.4,42.9,27.1,42.9,28.8z"/>
	<path d="M35,28.2c-1.8,0-3.5,0-5.3,0c0-5.3,0-10.6,0-15.9c1.8,0,3.5,0,5.3,0C35,17.6,35,22.9,35,28.2z"/>
	<path d="M21.2,12.3c0,5.3,0,10.6,0,15.9c-1.8,0-3.5,0-5.3,0c0-5.3,0-10.6,0-15.9C17.6,12.3,19.4,12.3,21.2,12.3z"/>
	<path d="M22.8,28.2c0-1,0-2,0-2.9c0-2.8,0-5.6,0-8.5c0-0.3,0.1-0.4,0.4-0.4c1.5,0,3.1,0,4.6,0c0.1,0,0.2,0,0.4,0
		c0,3.9,0,7.8,0,11.8C26.4,28.2,24.6,28.2,22.8,28.2z"/>
	<path d="M9,17.6c1.8,0,3.5,0,5.3,0c0,3.5,0,7,0,10.6c-1.8,0-3.5,0-5.3,0C9,24.6,9,21.1,9,17.6z"/>
	<path d="M36.3,33.5c-0.2,0.2-0.3,0.3-0.5,0.5c-2-1.6-4.3-2.1-6.8-1.4c-1.8,0.5-3.2,1.6-4.2,3.1c-2,3-1.6,7.1,1.2,9.7
		c2.7,2.5,6.8,2.6,9.7,0.3c1.6-1.3,2.6-3,2.8-5.1c0.2-2.1-0.4-4-1.7-5.6c0.2-0.2,0.4-0.3,0.5-0.5c2.4,2.5,3,7.5-0.2,11
		c-3.2,3.4-8.7,3.6-12.1-0.1c-3-3.3-3-8.6,0.7-11.8C29,30.6,33.8,31.2,36.3,33.5z"/>
	<path class="st0" d="M7.7,14.3C7.8,14.2,7.9,14,8,13.9c1.1-0.8,2.1-1.6,3.2-2.4c1.4-1.1,2.9-2.1,4.3-3.2c0.9-0.7,1.8-1.3,2.7-2
		c0.2-0.2,0.4-0.1,0.6,0c1.4,1.1,2.8,2.1,4.2,3.2c0.9,0.7,1.8,1.4,2.8,2c0.1,0.1,0.2,0.1,0.4,0c1.4-1.1,2.8-2.1,4.2-3.2
		c1.2-0.9,2.4-1.8,3.7-2.7c0.3-0.2,0.6-0.4,0.9-0.7c0.3-0.2,0.5-0.2,0.7,0c0.2,0.2,0.1,0.5-0.2,0.7c-1.9,1.4-3.8,2.8-5.7,4.2
		c-1.1,0.9-2.3,1.7-3.4,2.6c-0.2,0.2-0.4,0.2-0.7,0c-1.5-1.1-2.9-2.2-4.4-3.3c-0.9-0.6-1.7-1.3-2.6-1.9c-0.1-0.1-0.2-0.1-0.4,0
		c-0.6,0.5-1.3,1-2,1.5c-1.3,1-2.6,1.9-3.9,2.9c-0.9,0.7-1.8,1.4-2.7,2.1c-0.4,0.3-0.8,0.6-1.2,0.9c-0.1,0.1-0.3,0.1-0.5,0
		C7.9,14.6,7.8,14.5,7.7,14.3z"/>
	<path d="M41.1,25.8c0.1,1.2,0.2,2.3,0.3,3.5c1.2,0.1,2.3,0.2,3.5,0.3c-0.3,0.3-0.5,0.5-0.7,0.8c-1.1,1.1-2.2,2.2-3.2,3.2
		c-0.2,0.2-0.3,0.2-0.6,0.2c-0.8-0.1-1.7-0.2-2.5-0.2c-0.1,0-0.3,0.1-0.4,0.2c-0.8,0.7-1.5,1.5-2.3,2.3c-0.7,0.7-1.4,1.3-2.1,2
		c-0.4,0.4-0.7,0.7-1.1,1.1c-0.1,0.1,0,0.3,0,0.4c0.1,0.5-0.1,1-0.5,1.2c-0.4,0.2-0.9,0.2-1.3-0.2c-0.3-0.3-0.4-0.8-0.3-1.2
		c0.2-0.5,0.7-0.8,1.3-0.6c0.2,0,0.3,0,0.4-0.1c1-1,2.1-2.1,3.1-3.1c0.7-0.7,1.5-1.5,2.2-2.2c0.1-0.1,0.2-0.3,0.2-0.5
		c-0.1-0.8-0.2-1.7-0.2-2.5c0-0.1,0-0.3,0.1-0.4c1.3-1.3,2.6-2.6,4-4C41,25.9,41.1,25.9,41.1,25.8z M43.3,30.4c0,0,0-0.1-0.1-0.1
		c-0.8-0.1-1.6-0.2-2.5-0.2c-0.1-0.8-0.2-1.7-0.3-2.5c-0.2,0.2-0.4,0.4-0.6,0.6c-0.7,0.7-1.4,1.4-2.1,2.1c-0.1,0.1-0.2,0.2-0.2,0.3
		c0.1,0.8,0.1,1.6,0.2,2.5c0.8,0.1,1.5,0.1,2.3,0.2c0.2,0,0.4-0.1,0.5-0.2c0.7-0.6,1.3-1.3,2-2C42.9,30.7,43.1,30.5,43.3,30.4z"/>
	<path d="M35.8,36c1.8,2,2,5.8-0.5,8.2c-2.4,2.3-6.2,2.3-8.6-0.1c-2.3-2.4-2.4-6.1-0.1-8.5c2.5-2.6,6.3-2.2,8.2-0.5
		c-0.2,0.2-0.3,0.3-0.5,0.5c-0.3-0.2-0.5-0.4-0.8-0.5c-2-0.9-3.8-0.8-5.6,0.4c-2.3,1.6-2.9,5-1.3,7.3c1.5,2.1,4.1,2.9,6.5,2
		c2.4-1,3.7-3.5,3.2-6c-0.1-0.7-0.4-1.3-0.8-1.9c-0.2-0.3-0.2-0.5,0.1-0.7C35.6,36.1,35.7,36,35.8,36z"/>
	<path d="M33.7,38c0.2-0.2,0.3-0.3,0.5-0.5c1,1.2,1.2,3.6-0.4,5.1c-1.5,1.5-3.8,1.6-5.5,0.1c-1.6-1.4-1.7-4-0.3-5.6
		c1.5-1.7,3.9-1.7,5.3-0.6c-0.2,0.2-0.3,0.4-0.5,0.5c-2-0.8-3.5-0.5-4.5,1.1c-0.8,1.2-0.5,3,0.5,4c1.1,1,2.9,1.2,4,0.3
		C34.1,41.6,34.8,39.8,33.7,38z"/>
	<path class="st0" d="M13.1,35.4c-2.3,0-4.6,0-6.9,0c-0.3,0-0.4-0.1-0.4-0.4c0-0.3,0.1-0.4,0.4-0.4c4.6,0,9.3,0,13.9,0
		c0.1,0,0.4,0.1,0.4,0.1c0,0.2,0,0.4,0,0.6c0,0-0.2,0.1-0.3,0.1C17.7,35.4,15.4,35.4,13.1,35.4z"/>
	<path class="st0" d="M13.1,38.9c2.3,0,4.6,0,6.9,0c0.4,0,0.6,0.2,0.4,0.6c0,0.1-0.2,0.2-0.3,0.2c-0.3,0-0.6,0-0.9,0
		c-3.7,0-7.3,0-11,0c-0.7,0-1.5,0-2.2,0c-0.3,0-0.4-0.1-0.4-0.4c0-0.3,0.1-0.4,0.4-0.4C8.4,38.9,10.8,38.9,13.1,38.9z"/>
	<path class="st0" d="M11.6,43.3c1.8,0,3.6,0,5.4,0c0.3,0,0.4,0.1,0.4,0.4c0,0.3-0.1,0.4-0.4,0.4c-3.6,0-7.2,0-10.8,0
		c-0.3,0-0.5-0.2-0.4-0.5c0-0.3,0.2-0.4,0.4-0.4c1.5,0,3,0,4.5,0C11,43.3,11.3,43.3,11.6,43.3z"/>
</g>
</svg>
