<?xml version="1.0" encoding="utf-8"?>
<!-- Generator: Adobe Illustrator 19.0.0, SVG Export Plug-In . SVG Version: 6.00 Build 0)  -->
<svg version="1.1" id="Layer_1" xmlns="http://www.w3.org/2000/svg" xmlns:xlink="http://www.w3.org/1999/xlink" x="0px" y="0px"
	 viewBox="-279.7 371.3 53.2 50.8" style="enable-background:new -279.7 371.3 53.2 50.8;" xml:space="preserve">
<g>
	<path d="M-247.3,388.3c1.1,1.9,2.7,2.5,4.8,2.4c4.8-0.2,9.6-0.1,14.4-0.1c0.5,0,1,0,1.5,0c0,10.6,0,21,0,31.5
		c-17.7,0-35.4,0-53.2,0c0-10.4,0-20.9,0-31.4c7.5,0,15.1,0,22.9,0c-1.7-1.7-3.2-3.2-4.6-4.7c-0.1-0.1-0.3-0.2-0.5-0.2
		c-3.6,0-5.4-2.7-7.3-5.1c-1.8-2.3-1.2-5.6,0.9-7.7c2.2-2,5.4-2.3,7.7-0.5c2.3,1.9,4.6,3.7,4.9,7.2c0.1,1,1.5,1.9,2.4,2.9
		c1.5-1.4,3-2.5,3.1-4.7c0-0.8,0.7-1.6,1.2-2.2c0.8-1,1.8-1.9,2.8-2.8c2.3-2.1,5.8-2.1,8.1-0.1c2.3,2,2.9,5.5,1,8
		c-1.1,1.5-2.5,2.7-3.9,3.9c-0.4,0.4-1,0.7-1.6,0.7C-244.9,385.4-246,387-247.3,388.3z M-254.5,394.3c0-0.4,0-0.8,0-1.2
		c-5.6,0-11.1,0-16.6,0.1c-0.5,0-1.3,0.7-1.4,1.2c-0.7,1.9-1.9,3-3.8,3.5c-0.9,0.3-1.2,0.8-1.2,1.8c0.1,4.5,0.1,9,0,13.4
		c0,1.1,0.4,1.7,1.3,1.9c1.8,0.4,3,1.5,3.6,3.3c0.4,1.1,1.2,1.5,2.4,1.5c3.3-0.1,6.6,0,9.9,0c1.9,0,3.9,0,5.8,0
		c0.1-1.2,0.1-1.2-0.8-1.5c-1.4-0.6-2.9-1-4-1.9c-4.1-3.2-5.4-7.5-4.5-12.5C-262.8,398.8-259.8,395.5-254.5,394.3z M-242,405.2
		c-0.1,0.1-0.2,0.1-0.3,0.2c0,0.1,0,0.3,0,0.4c0.4,5.9-3.1,11-8.8,12.5c-1,0.3-0.9,0.7-0.8,1.5c5.5,0,10.9,0,16.4-0.1
		c0.6,0,1.5-0.7,1.7-1.2c0.7-1.9,1.9-3.1,3.9-3.6c0.8-0.2,1.2-0.8,1.1-1.7c-0.1-4.4-0.1-8.8,0-13.2c0-1.2-0.4-1.9-1.5-2.2
		c-1.7-0.5-2.8-1.5-3.4-3.2c-0.2-0.5-0.8-1.3-1.2-1.3c-2.5-0.1-5-0.1-7.9-0.1c1.6,1.5,2.9,2.8,4.2,4c1.5,1.5,2.3,3.3,2.4,5.5
		c0.1,1.7,0.1,3.4,0,5.2c0,0.5-0.4,1.3-0.8,1.5c-0.3,0.2-1.1-0.2-1.5-0.5C-239.7,407.7-240.8,406.4-242,405.2z M-252,415.9
		c4.2-0.3,7.4-4.8,7.3-9.9c-0.1-3.9-4.1-8.9-7.4-9c0,1.1,0,2.1,0,3.2c-0.8,0-1.5,0-2.4,0c0-1.1,0-2.2,0-3.2
		c-3.8,0.1-7.3,4.6-7.3,9.3c0,4.8,3.4,9.4,7.4,9.6c0-1.1,0-2.2,0-3.3c0.9,0,1.6,0,2.4,0C-252,413.8-252,414.8-252,415.9z
		 M-239.3,405.4c0.2-0.2,0.4-0.3,0.6-0.5c0.4-2.6-0.2-4.8-2.2-6.7c-5.3-5.1-10.5-10.4-15.7-15.6c-0.9-0.9-1.7-1.7-1.5-3.1
		c0.1-0.6-0.4-1.4-0.8-1.9c-0.9-1-1.8-2-2.9-2.9c-1.5-1.3-3.6-1.2-5,0.3c-1.4,1.4-1.5,3.5-0.1,5c0.8,0.9,1.7,1.9,2.7,2.7
		c0.6,0.5,1.4,1,2,0.9c1.5-0.1,2.3,0.7,3.2,1.6C-252.4,391.9-245.8,398.6-239.3,405.4z M-248.9,386.8c0.4-0.5,0.7-1,1.1-1.4
		c1.1-1.2,2.1-2.4,4-2.1c0.5,0.1,1.1-0.3,1.6-0.7c1-0.9,2.1-1.9,3-3c1.3-1.5,1.1-3.5-0.3-4.9c-1.4-1.4-3.3-1.6-4.9-0.3
		c-1.1,0.9-2.1,1.9-3,3c-0.4,0.4-0.8,1.2-0.7,1.7c0.2,1.7-0.7,2.6-1.8,3.5c-0.5,0.5-1.1,0.9-1.7,1.4
		C-250.7,385.1-249.9,385.9-248.9,386.8z M-277.4,419.8c0.9,0,1.8,0,2.6,0c-0.1-1.6-1.1-2.4-2.6-2.5
		C-277.4,418-277.4,418.8-277.4,419.8z M-228.9,417.1c-1.6,0.3-2.4,1.1-2.7,2.6c0.9,0,1.8,0,2.7,0
		C-228.9,418.8-228.9,418-228.9,417.1z M-274.8,393.2c-0.9,0-1.8,0-2.6,0c0,0.9,0,1.6,0,2.5C-275.9,395.4-275.1,394.7-274.8,393.2z
		 M-228.9,393.2c-1,0-1.8,0-2.6,0c0.3,1.6,1.2,2.2,2.6,2.4C-228.9,394.8-228.9,394-228.9,393.2z"/>
	<path d="M-254.3,402.9c0.8,0,1.5,0,2.2,0c0,0.3,0.1,0.6,0.1,0.8c0,2,0,4.1,0,6.2c-0.8,0-1.5,0-2.3,0
		C-254.3,407.6-254.3,405.3-254.3,402.9z"/>
	<path d="M-263.4,376.3c1,0,3,2,3,3c0,1-0.8,1.7-1.9,1.7c-1.1,0-2.9-1.8-2.9-2.9C-265.2,377.2-264.3,376.3-263.4,376.3z"/>
	<path d="M-251.7,388.6c-0.5,0.3-1,1-1.4,0.9c-0.5,0-1.2-0.7-1.2-1.1c0-0.4,0.7-1.1,1.1-1.2c0.4-0.1,1,0.5,1.5,0.8
		C-251.7,388.2-251.7,388.4-251.7,388.6z"/>
	<path d="M-244.2,381.1c-1-0.1-1.6-0.7-1.6-1.7c0-1.2,1.7-3,2.8-3c0.9,0,1.9,0.9,1.8,1.8C-241.1,379.1-243.1,381.1-244.2,381.1z"/>
</g>
</svg>
