<?xml version="1.0" encoding="utf-8"?>
<!-- Generator: Adobe Illustrator 19.0.0, SVG Export Plug-In . SVG Version: 6.00 Build 0)  -->
<svg version="1.1" id="Layer_1" xmlns="http://www.w3.org/2000/svg" xmlns:xlink="http://www.w3.org/1999/xlink" x="0px" y="0px"
	 viewBox="-277.4 368.2 53.4 56.2" style="enable-background:new -277.4 368.2 53.4 56.2;" xml:space="preserve">
<g>
	<path d="M-250.6,409c-7,0-12.7-5.7-12.7-12.7c0-7,5.7-12.6,12.7-12.6c7,0,12.6,5.7,12.6,12.7C-238,403.3-243.7,409-250.6,409z
		 M-253,399.2c-0.9,0.1-1.8,0.2-2.6,0.3c0,1.9,1.4,3.6,3.3,4.2c0.9,0.3,0.9,0.3,1,1.2c0,0,0,0.1,0.1,0.1c0.4,0,0.9,0,1.4,0
		c0-0.4,0-0.8,0-1.1c0.3-0.1,0.6-0.1,0.9-0.2c2-0.6,3.3-2.1,3.3-4.1c0.1-2.1-0.8-3.4-2.9-4.2c-0.1-0.1-0.3-0.1-0.4-0.2
		c-0.9-0.3-0.9-0.3-0.9-1.3c0-0.9,0-1.9,0-2.9c0.8,0.3,1.1,0.9,1.3,1.6c0.9-0.1,1.7-0.2,2.6-0.3c-0.4-2.2-1.8-3.2-3.8-3.5
		c0-0.3,0-0.6,0-0.9c-0.5,0-1,0-1.5,0c0,0.3,0,0.6,0,0.9c-0.1,0-0.1,0-0.1,0c-0.2,0-0.3,0.1-0.5,0.1c-1.7,0.4-2.9,1.3-3.2,3.1
		c-0.3,1.8,0.1,3.3,1.6,4.4c0.6,0.4,1.2,0.6,1.9,0.9c0.1,0.1,0.3,0.3,0.3,0.4c0,0.6,0,1.3,0,1.9c0,0.6,0,1.3,0,2
		C-252.3,400.9-252.8,400.2-253,399.2z"/>
	<path d="M-223.9,390.9C-224,390.9-224,390.9-223.9,390.9c-2.9,0.1-5.7,0.4-8.4-0.6c-1.7-0.6-3.2-1.6-4.5-2.8
		c-3.7-3.7-7.5-7.5-11.2-11.2c-0.3-0.3-0.6-0.8-0.7-1.2c-0.2-0.7,0.3-1.4,0.9-1.8c0.7-0.3,1.5-0.2,2.1,0.4c1.5,1.5,3,3,4.4,4.4
		c0.1,0.1,0.2,0.2,0.3,0.3c0.4,0.4,1,0.4,1.4,0c0.4-0.4,0.4-1,0-1.5c-0.3-0.3-0.6-0.7-1-1c-1.2-1.2-2.5-2.5-3.7-3.7
		c-1.8-1.8-4.4-1.6-5.9,0.4c-0.1,0.1-0.3,0.3-0.5,0.3c-3.1,0-6.2,0-9.3,0c-1.3,0-2.3-1-2.3-2.3c0-1.3,1-2.3,2.3-2.3
		c5.3,0,10.6,0,15.9,0c2.4,0,4.5,1,6.2,2.7c3,3,6.1,6,9.1,9.1c1,1,2.1,1.5,3.5,1.4c0.5,0,0.9,0,1.4,0
		C-223.9,384.7-223.9,387.8-223.9,390.9z"/>
	<path d="M-277.4,411.2c0-3.2,0-6.3,0-9.4c0.1,0,0.1-0.1,0.1-0.1c2.1,0,4.3-0.2,6.4,0.2c2.4,0.5,4.5,1.5,6.3,3.3
		c3.8,3.8,7.6,7.6,11.4,11.4c0.6,0.6,0.7,1.4,0.3,2.1c-0.4,0.7-1.1,1.1-1.9,0.8c-0.4-0.1-0.7-0.3-1-0.6c-1.5-1.5-3-3-4.5-4.5
		c-0.2-0.2-0.6-0.4-0.9-0.5c-0.4-0.1-0.7,0.2-0.9,0.6c-0.2,0.4-0.1,0.8,0.3,1.2c0.9,0.9,1.9,1.9,2.8,2.8c0.6,0.6,1.3,1.3,2,1.9
		c1.7,1.7,4.3,1.5,5.8-0.5c0.1-0.2,0.4-0.3,0.6-0.3c3,0,6.1,0,9.1,0c1.4,0,2.5,1,2.5,2.3c0,1.3-1,2.3-2.5,2.3c-5.2,0-10.4,0-15.6,0
		c-2.5,0-4.6-0.9-6.4-2.7c-3-3-6.1-6-9.1-9.1c-1-1-2.1-1.5-3.5-1.4C-276.4,411.2-276.9,411.2-277.4,411.2z"/>
	<path d="M-249.9,397.7c1.2,0.3,1.8,1.1,1.7,2c-0.1,1-0.7,1.7-1.7,1.9C-249.9,400.2-249.9,399-249.9,397.7z"/>
	<path d="M-251.4,391c0,1.1,0,2.2,0,3.3c-0.8-0.2-1.3-0.9-1.3-1.7C-252.7,391.8-252.2,391.2-251.4,391z"/>
</g>
</svg>
