<?xml version="1.0" encoding="utf-8"?>
<!-- Generator: Adobe Illustrator 19.0.0, SVG Export Plug-In . SVG Version: 6.00 Build 0)  -->
<svg version="1.1" id="Layer_1" xmlns="http://www.w3.org/2000/svg" xmlns:xlink="http://www.w3.org/1999/xlink" x="0px" y="0px"
	 viewBox="-282.4 373.1 65.1 46.5" style="enable-background:new -282.4 373.1 65.1 46.5;" xml:space="preserve">
<g>
	<path d="M-249.4,373.2c5.5,0,11,0,16.5,0c2.4,0,4.8,0,7.2,0c1.1,0,1.3,0.2,1.6,1.3c0.9,2.9,1.8,5.7,2.6,8.6
		c1.4,4.6,2.7,9.2,4.1,13.8c0.2,0.7,0.1,1.2-0.3,1.8c-3.4,4.8-6.8,9.6-10.1,14.5c-1.3,1.9-2.6,3.8-3.9,5.7c-0.4,0.6-1,0.9-1.8,0.9
		c-10.8,0-21.5,0-32.3,0c-5,0-10,0-15,0c-0.9,0-1.4-0.4-1.5-1.1c0-0.3,0-0.7,0.2-0.9c3.1-4.5,6.2-8.9,9.3-13.4
		c1.6-2.2,3.1-4.5,4.7-6.7c0.2-0.3,0.2-0.5,0.1-0.9c-1.6-5.3-3.2-10.7-4.9-16c-0.6-1.9-1.2-3.8-1.8-5.7c-0.3-1.1,0.2-1.8,1.4-1.8
		C-265.4,373.1-257.4,373.2-249.4,373.2z M-256.4,398.9c-0.3,0-0.5,0-0.7,0c-2.8,0-5.6,0-8.3,0c-0.2,0-0.5,0.1-0.6,0.3
		c-1.9,2.7-3.8,5.4-5.7,8.2c-1.8,2.6-3.6,5.2-5.4,7.8c-0.4,0.6-0.9,1.3-1.4,2c1.6,0,3,0,4.4,0c3.6,0,7.1,0,10.7,0
		c9.7,0,19.5,0,29.2,0c0.1,0,0.2,0,0.3,0c0.2-0.1,0.3-0.1,0.4-0.2c1.2-1.7,2.4-3.4,3.6-5.1c2.6-3.7,5.2-7.4,7.8-11.1
		c0.4-0.5,0.8-1.1,1.2-1.8c-4,0-7.9,0-11.8,0c0-0.9,0-1.8,0-2.8c4.2,0,8.4,0,12.6,0c-2.1-6.9-4.1-13.7-6.2-20.4
		c-15.1,0-30.2,0-45.3,0c0.3,1.1,0.6,2.1,0.9,3.1c0.5,1.7,1.1,3.4,1.6,5.2c1.2,3.9,2.4,7.8,3.6,11.7c0.1,0.4,0.3,0.5,0.7,0.5
		c2.6,0,5.3,0,7.9,0c0.2,0,0.4,0,0.7,0C-256.4,397.1-256.4,397.9-256.4,398.9z"/>
	<path d="M-246.5,396.1c0.9-2.4,1.8-4.7,2.7-7c0.1-0.1,0-0.3,0-0.5c-1.2-3.7,1.2-7.3,5.1-7.4c2.2-0.1,4,0.9,5.1,2.8c1.1,2,1,4-0.2,6
		c-0.6,0.9-1.4,1.5-2.3,2c-0.2,0.1-0.3,0.2-0.4,0.3c-1.1,2.2-2.1,4.5-3.1,6.7c1.4,0.9,2.5,2.2,3,3.8c0.6,1.8,0.6,3.5-0.2,5.3
		c-0.3,0.6-1,0.9-1.6,0.7c-0.7-0.3-1-1-0.7-1.7c0.7-2,0.4-3.9-1.2-5.3c-0.5-0.5-1.2-0.8-1.9-1.1c-1.4-0.6-2.8-1.2-4.1-1.8
		c-2.4-1.1-5.2-0.1-6.3,2.3c-0.3,0.6-0.7,0.9-1.4,0.8c-0.6-0.1-1-0.5-1.1-1c0-0.2,0-0.5,0.1-0.7c1-2.2,2.6-3.7,4.9-4.2
		C-249,395.8-247.7,395.5-246.5,396.1z M-242,397.9c0.1-0.2,0.1-0.2,0.2-0.3c1.1-2.3,2.1-4.6,3.2-6.8c0.2-0.5,0.6-0.8,1.2-1.1
		c0.5-0.2,1-0.6,1.4-1c1-1.1,0.9-2.8-0.2-4c-1-1.1-2.7-1.2-3.9-0.4c-1.2,0.8-1.6,2.4-0.9,3.7c0.2,0.5,0.3,0.9,0.1,1.4
		c-0.7,1.7-1.3,3.4-2,5.1c-0.3,0.8-0.6,1.6-1,2.5C-243.3,397.3-242.7,397.6-242,397.9z"/>
	<path d="M-256.6,402.6c0.2,0.1,0.6,0.2,0.9,0.3c5.3,2.3,10.6,4.5,15.9,6.8c0.8,0.4,1.6,0.7,2.5,1c0.8,0.3,1.2,1,0.9,1.8
		c-0.3,0.7-1.1,1-1.9,0.6c-3.2-1.4-6.3-2.7-9.5-4.1c-3.1-1.3-6.3-2.7-9.4-4c-0.6-0.2-0.9-0.8-0.8-1.4
		C-258,403.1-257.5,402.6-256.6,402.6z"/>
	<path d="M-246.7,412.1c0,0.8,0,1.5,0,2.4c-8.1,0-16.1,0-24.2,0c0-0.8,0-1.5,0-2.4C-262.8,412.1-254.8,412.1-246.7,412.1z"/>
	<path d="M-267.6,409.2c0-0.8,0-1.6,0-2.4c3.5,0,6.9,0,10.4,0c0,0.8,0,1.6,0,2.4C-260.7,409.2-264.1,409.2-267.6,409.2z"/>
</g>
</svg>
