<?xml version="1.0" encoding="utf-8"?>
<!-- Generator: Adobe Illustrator 19.0.0, SVG Export Plug-In . SVG Version: 6.00 Build 0)  -->
<svg version="1.1" id="Layer_1" xmlns="http://www.w3.org/2000/svg" xmlns:xlink="http://www.w3.org/1999/xlink" x="0px" y="0px"
	 viewBox="0 0 59.9 59.8" style="enable-background:new 0 0 59.9 59.8;" xml:space="preserve">
<g>
	<path d="M414.9,56.6c-0.6,0-1.2,0-1.9,0c0-1.3,0-2.6,0-3.9c-0.7,0-1.3,0-2,0c0-1.7,0-3.3,0-4.9c0-0.2,0.4-0.4,0.6-0.5
		c5.4-2.7,10.9-5.4,16.3-8.2c0.8-0.4,1.7-0.9,2.5-1.2c1.3-0.6,2.4-1.6,3.9-1.3c0.1-0.5,0.1-1,0.3-1.4c0.5-1.9,2.1-3.3,4.1-3.4
		c1.4-0.1,2.8,0,4.1,0c0.6,0,0.9,0.1,0.8,0.8c0,0.2,0,0.4,0,0.7c-1.5,0-3,0-4.6,0c-1.5,0-2.6,0.9-3,2.2c0,0.1-0.1,0.3-0.1,0.4
		c-0.2,0.6,0,0.8,0.7,0.8c0.4,0,0.9,0.1,1.3,0.3c6.9,3.4,13.8,6.9,20.7,10.3c0.5,0.2,0.7,0.5,0.7,1.1c0,1.3,0,2.5,0,3.8
		c0,0.4-0.1,0.6-0.6,0.6c-0.4,0-0.8,0-1.3,0c0,1.3,0,2.5,0,3.9c-0.5,0-1,0-1.4,0c-0.5,0-0.6,0.1-0.6,0.6c0,0.8,0,1.6,0,2.5
		c0,4.1,0,8.1,0,12.2c0,0.9,0,0.9,0.9,0.9c0.3,0,0.7,0,1.1,0c0,1,0,2,0,3c0,0.9,0,0.9,0.9,0.9c1.1,0,1-0.2,1,1.1c0,1.2,0,2.4,0,3.5
		c0,0.5-0.1,0.7-0.7,0.7c-1.3,0-2.7,0-4,0c-14.2,0-28.3,0-42.5,0c-0.3,0-0.6,0-1,0c0-1.8,0-3.5,0-5.3c0.4,0,0.7,0,1.1,0
		c0.7,0.1,0.9-0.1,0.9-0.8c-0.1-1,0-2,0-3.1c0.4,0,0.8,0,1.2,0c0.6,0.1,0.8-0.2,0.8-0.8c0-1.9,0-3.9,0-5.8c0-2.9,0-5.7,0-8.6
		C414.9,57.2,414.9,56.9,414.9,56.6z M434.4,44.7c0-2,0-3.9,0-5.9c0-0.9-0.3-1-1.1-0.8c-0.2,0.1-0.4,0.2-0.5,0.3
		c-6.2,3.1-12.4,6.2-18.6,9.3c-1.7,0.9-1.7,0.9-1.7,2.8c0,0.6,0.2,0.8,0.8,0.8c0.2,0,0.4,0,0.7,0c13.9,0,27.9,0,41.8,0
		c0.7,0,1.6,0.2,1.9-0.2c0.4-0.4,0.1-1.3,0.2-2c0.1-0.5-0.2-0.7-0.6-1c-6.6-3.3-13.2-6.6-19.8-9.9c-0.2-0.1-0.5-0.2-0.7-0.2
		c-0.8-0.1-0.9,0-0.9,0.7c0,1.6,0,3.3,0,4.9c0,1.1,0,1.1-1.1,1.1C434.6,44.8,434.5,44.8,434.4,44.7z M432,56.6
		c0,0.3-0.1,0.6-0.1,0.9c0,2.8,0,5.6,0,8.4c0,2,0,4,0,5.9c0,0.6,0.2,0.9,0.8,0.8c0.4,0,0.7,0,1.1,0c0,0.8,0,1.5,0,2.2
		c0,1.7,0,1.7,1.7,1.7c0.6,0,0.8-0.2,0.8-0.8c0-1,0-2,0-3.1c0.4,0,0.6,0,0.9,0c1.1,0,1.1,0,1.1-1.1c0-4.7,0-9.4,0-14.1
		c0-0.3,0-0.6-0.1-1c-0.7,0-1.2,0-1.9,0c0-1.3,0-2.5,0-3.8c-0.8,0-1.6,0-2.5,0c0,1.3,0,2.5,0,3.8C433.2,56.6,432.6,56.6,432,56.6z
		 M420.3,56.5c0,0.4,0,0.7,0,1c0,4.6,0,9.1,0,13.7c0,1.4,0,1.4,1.4,1.4c0.4,0,0.6,0.2,0.5,0.5c0,0.5,0,1,0,1.5c0,1.8,0,1.8,1.8,1.8
		c0.6,0,0.7-0.2,0.7-0.7c0-0.8,0-1.6,0-2.5c0-0.5,0.1-0.8,0.7-0.7c0.1,0,0.3,0,0.4,0c0.7,0.1,0.9-0.1,0.9-0.8c0-4.8,0-9.7,0-14.5
		c0-0.2,0-0.5,0-0.8c-0.5,0-0.9,0-1.4,0c-0.4,0-0.5-0.1-0.5-0.5c0-0.2,0-0.5,0-0.7c0-0.9,0-1.7,0-2.6c-0.7,0-1.3,0-1.9,0
		c-0.6,0-0.7,0.2-0.7,0.7c0,0.7,0,1.5,0,2.2c0,1,0,1-1,1C420.9,56.5,420.7,56.5,420.3,56.5z M443.6,56.5c0,0.4,0,0.7,0,0.9
		c0,4.6,0,9.1,0,13.7c0,1.4,0,1.4,1.4,1.5c0.4,0,0.6,0.2,0.5,0.6c0,0.5,0,1,0,1.5c0,2,0,2,2,1.9c0.4,0,0.6-0.2,0.6-0.5
		c0-0.7,0-1.5,0-2.2c0-1.4-0.1-1.2,1.1-1.1c0.6,0,0.8-0.2,0.8-0.8c0-4.9,0-9.7,0-14.6c0-0.2,0-0.5,0-0.8c-0.5,0-0.9,0-1.3,0
		c-0.5,0-0.6-0.1-0.6-0.6c0-0.9,0-1.8,0-2.7c0-0.2-0.2-0.5-0.4-0.5c-0.7-0.1-1.3,0-2,0c0,0.3-0.1,0.5-0.1,0.8c0,0.6,0,1.3,0,1.9
		c0,1.4,0.1,1.1-1.1,1.2C444.2,56.5,444,56.5,443.6,56.5z M457.7,80.4c0-0.2,0.1-0.2,0.1-0.3c0-0.4,0-0.8,0-1.2c0-1,0-1-1-1
		c-14.3,0-28.5,0-42.8,0c-1.6,0-1.6,0-1.6,1.6c0,0.9,0,0.9,0.9,0.9c14.5,0,29,0,43.6,0C457.1,80.4,457.4,80.4,457.7,80.4z
		 M416.4,56.5c0,0.4,0,0.6,0,0.9c0,4.5,0,9,0,13.6c0,1.6,0,1.6,1.7,1.6c0.7,0,0.8-0.3,0.8-0.9c0-4.8,0-9.6,0-14.4c0-0.2,0-0.3,0-0.5
		c-0.1-0.2-0.2-0.4-0.4-0.4C417.8,56.5,417.1,56.5,416.4,56.5z M430.5,56.5c-0.6,0-1.1,0-1.6,0c-0.7-0.1-0.8,0.2-0.8,0.9
		c0,4.5,0,9.1,0,13.6c0,1.6,0,1.6,1.7,1.6c0.6,0,0.8-0.2,0.8-0.8c0-4.9,0-9.7,0-14.6C430.5,57.1,430.5,56.8,430.5,56.5z M439.8,56.5
		c0,0.3,0,0.6,0,0.9c0,4.5,0,9.1,0,13.6c0,1.6,0,1.6,1.6,1.6c0.9,0,0.9,0,0.9-0.9c0-4.8,0-9.6,0-14.4c0-0.1,0-0.2,0-0.3
		c0-0.4-0.1-0.5-0.5-0.5C441.1,56.6,440.5,56.5,439.8,56.5z M453.9,56.5c-0.6,0-1.1,0-1.6,0c-0.7-0.1-0.8,0.2-0.8,0.9
		c0,4.5,0,9.1,0,13.6c0,1.6,0,1.6,1.7,1.6c0.6,0,0.8-0.2,0.8-0.8c0-4.9,0-9.7,0-14.6C453.9,57.1,453.9,56.8,453.9,56.5z M452.7,74
		c-0.5,0-1,0-1.5,0c-1.9,0-1.9,0-1.8,1.9c0,0.5,0.2,0.6,0.6,0.6c1.3,0,2.7,0,4,0c1.9,0,1.9,0,1.8-1.9c0-0.5-0.2-0.6-0.6-0.6
		C454.4,74.1,453.6,74,452.7,74z M449.4,52.7c0,0.6,0,1.2,0,1.7c0,0.6,0.2,0.7,0.7,0.7c1.5,0,3,0,4.5,0c1.4,0,1.2,0,1.2-1.2
		c0-1.4,0.1-1.2-1.2-1.2c-0.9,0-1.8,0-2.7,0C451.2,52.7,450.4,52.7,449.4,52.7z M420.7,74c-1.6,0-3,0-4.5,0c-1.8,0-1.8,0-1.8,1.8
		c0,0.5,0.2,0.7,0.7,0.7c1.3,0,2.7,0,4,0c0.5,0,1.1,0,1.6,0C420.7,75.7,420.7,74.9,420.7,74z M426.2,76.5c1.6,0,3.1,0,4.5,0
		c1.8,0,1.8,0,1.8-1.8c0-0.5-0.2-0.7-0.7-0.6c-1.6,0-3.3,0-4.9,0c-0.2,0-0.5,0-0.7,0C426.2,74.9,426.2,75.7,426.2,76.5z M444.1,74
		c-1.6,0-3,0-4.5,0c-1.8,0-1.8,0-1.8,1.8c0,0.5,0.1,0.7,0.6,0.7c1.5,0,3,0,4.5,0c0.4,0,0.8,0,1.2,0C444.1,75.7,444.1,74.9,444.1,74z
		 M420.7,52.7c-1.6,0-3.1,0-4.6,0c-1.7,0-1.7,0-1.7,1.7c0,0.6,0.2,0.7,0.7,0.7c1.7,0,3.3,0,5,0c0.2,0,0.4,0,0.6-0.1
		C420.7,54.2,420.7,53.5,420.7,52.7z M426.2,55c0.3,0,0.5,0.1,0.8,0.1c1.2,0,2.5,0,3.7,0c2.1,0,1.7,0.3,1.8-1.9
		c0-0.5-0.2-0.6-0.6-0.6c-1.1,0-2.2,0-3.3,0c-0.8,0-1.6,0-2.4,0C426.2,53.5,426.2,54.2,426.2,55z M444.1,52.7c-1.6,0-3.1,0-4.6,0
		c-1.7,0-1.7,0-1.7,1.7c0,0.5,0.2,0.7,0.7,0.7c1.7,0,3.3,0,5,0c0.2,0,0.4,0,0.6-0.1c0-0.6,0-1.1,0-1.7
		C444.1,53.1,444.1,52.9,444.1,52.7z"/>
	<path d="M460.5,22c5.4-0.1,10.5,4.4,10.5,10.5c0,5.5-4.3,10.4-10.4,10.4c-6.2,0-10.5-5.1-10.5-10.5C450.1,26.4,455,21.9,460.5,22z
		 M460.5,23.4c-5,0-9.1,4-9.1,9c0,4.9,4.1,9.1,9,9.1c5.2-0.1,9-4.1,9.1-9C469.5,27.5,465.4,23.4,460.5,23.4z"/>
	<path d="M467,44.4c0,0.2,0,0.4,0,0.6c0,4.9,0,9.8,0,14.7c0,2.6-2.1,4.6-4.7,4.6c-0.5,0-0.6-0.2-0.6-0.6c0-0.4-0.1-0.8,0.6-0.8
		c2-0.1,3.3-1.4,3.3-3.4c0-4.6,0-9.3,0-13.9C465.6,44.2,465.6,44.2,467,44.4z"/>
	<path d="M446.1,33.1c0.1-0.5,0-1,0.2-1.3c0.1-0.2,0.9-0.2,1,0c0.2,0.3,0.2,0.8,0.2,1.3C447.1,33.1,446.7,33.1,446.1,33.1z"/>
	<path d="M457.8,62.8c0.5,0.1,1,0.1,1.3,0.3c0.2,0.1,0.2,0.9,0,1c-0.3,0.2-0.8,0.2-1.3,0.3C457.8,63.8,457.8,63.4,457.8,62.8z"/>
	<path d="M451.3,47.3c0,0.1,0.1,0.1,0.1,0.1c0.2,1.3,0.2,1.3-1.1,1.3c-10.1,0-20.2,0-30.3,0c-1.3,0-1.3,0-1.1-1.4
		C429.7,47.3,440.5,47.3,451.3,47.3z"/>
	<path d="M461.1,37.1c0,0.5,0,0.9,0,1.4c0,0.6-0.4,0.5-0.7,0.4c-0.3,0-0.8,0.1-0.7-0.4c0.1-1-0.1-1.5-1.3-1.7c-1-0.2-1.5-1-1.6-2.1
		c0.7,0,1.3-0.3,1.7,0.5c0.5,0.7,3.1,0.7,3.7,0c0.2-0.3,0.3-0.8,0.3-1.2c-0.1-0.5-0.5-0.8-1-0.9c-0.7,0-1.3,0-2,0
		c-1.4,0-2.6-1.1-2.7-2.5c-0.1-1.5,0.9-2.6,2.3-2.8c0.5-0.1,0.6-0.2,0.6-0.7c0-0.4,0-0.8,0-1.3c0.5,0,0.9,0,1.4,0c0,0.4,0,0.9,0,1.3
		c0,0.4,0.1,0.6,0.5,0.6c1.4,0.2,2.1,0.9,2.4,2.3c-0.6,0-1.2,0.3-1.7-0.5c-0.4-0.7-3.3-0.6-3.7,0c-0.2,0.3-0.3,0.8-0.2,1.2
		c0.1,0.5,0.6,0.8,1.1,0.8c0.7,0,1.4,0,2.1,0c1.1,0,1.8,0.6,2.3,1.6c0.5,1,0.3,2-0.5,2.8c-0.6,0.5-1.4,0.8-2.1,1.2
		C461.3,37.2,461.2,37.2,461.1,37.1z"/>
</g>
<g>
	<path d="M3.9,34.6c-0.6,0-1.2,0-1.9,0c0-1.3,0-2.6,0-3.9c-0.7,0-1.3,0-2,0c0-1.7,0-3.3,0-4.9c0-0.2,0.4-0.4,0.6-0.5
		c5.4-2.7,10.9-5.4,16.3-8.2c0.8-0.4,1.7-0.9,2.5-1.2c1.3-0.6,2.4-1.6,3.9-1.3c0.1-0.5,0.1-1,0.3-1.4c0.5-1.9,2.1-3.3,4.1-3.4
		c1.4-0.1,2.8,0,4.1,0c0.6,0,0.9,0.1,0.8,0.8c0,0.2,0,0.4,0,0.7c-1.5,0-3,0-4.6,0c-1.5,0-2.6,0.9-3,2.2c0,0.1-0.1,0.3-0.1,0.4
		c-0.2,0.6,0,0.8,0.7,0.8c0.4,0,0.9,0.1,1.3,0.3c6.9,3.4,13.8,6.9,20.7,10.3c0.5,0.2,0.7,0.5,0.7,1.1c0,1.3,0,2.5,0,3.8
		c0,0.4-0.1,0.6-0.6,0.6c-0.4,0-0.8,0-1.3,0c0,1.3,0,2.5,0,3.9c-0.5,0-1,0-1.4,0c-0.5,0-0.6,0.1-0.6,0.6c0,0.8,0,1.6,0,2.5
		c0,4.1,0,8.1,0,12.2c0,0.9,0,0.9,0.9,0.9c0.3,0,0.7,0,1.1,0c0,1,0,2,0,3c0,0.9,0,0.9,0.9,0.9c1.1,0,1-0.2,1,1.1c0,1.2,0,2.4,0,3.5
		c0,0.5-0.1,0.7-0.7,0.7c-1.3,0-2.7,0-4,0c-14.2,0-28.3,0-42.5,0c-0.3,0-0.6,0-1,0c0-1.8,0-3.5,0-5.3c0.4,0,0.7,0,1.1,0
		c0.7,0.1,0.9-0.1,0.9-0.8c-0.1-1,0-2,0-3.1c0.4,0,0.8,0,1.2,0C3.8,50.7,4,50.4,4,49.9c0-1.9,0-3.9,0-5.8c0-2.9,0-5.7,0-8.6
		C3.9,35.2,3.9,34.9,3.9,34.6z M23.4,22.7c0-2,0-3.9,0-5.9c0-0.9-0.3-1-1.1-0.8c-0.2,0.1-0.4,0.2-0.5,0.3
		c-6.2,3.1-12.4,6.2-18.6,9.3c-1.7,0.9-1.7,0.9-1.7,2.8c0,0.6,0.2,0.8,0.8,0.8c0.2,0,0.4,0,0.7,0c13.9,0,27.9,0,41.8,0
		c0.7,0,1.6,0.2,1.9-0.2c0.4-0.4,0.1-1.3,0.2-2c0.1-0.5-0.2-0.7-0.6-1c-6.6-3.3-13.2-6.6-19.8-9.9c-0.2-0.1-0.5-0.2-0.7-0.2
		c-0.8-0.1-0.9,0-0.9,0.7c0,1.6,0,3.3,0,4.9c0,1.1,0,1.1-1.1,1.1C23.6,22.8,23.5,22.8,23.4,22.7z M21,34.6c0,0.3-0.1,0.6-0.1,0.9
		c0,2.8,0,5.6,0,8.4c0,2,0,4,0,5.9c0,0.6,0.2,0.9,0.8,0.8c0.4,0,0.7,0,1.1,0c0,0.8,0,1.5,0,2.2c0,1.7,0,1.7,1.7,1.7
		c0.6,0,0.8-0.2,0.8-0.8c0-1,0-2,0-3.1c0.4,0,0.6,0,0.9,0c1.1,0,1.1,0,1.1-1.1c0-4.7,0-9.4,0-14.1c0-0.3,0-0.6-0.1-1
		c-0.7,0-1.2,0-1.9,0c0-1.3,0-2.5,0-3.8c-0.8,0-1.6,0-2.5,0c0,1.3,0,2.5,0,3.8C22.2,34.6,21.6,34.6,21,34.6z M9.3,34.5
		c0,0.4,0,0.7,0,1c0,4.6,0,9.1,0,13.7c0,1.4,0,1.4,1.4,1.4c0.4,0,0.6,0.2,0.5,0.5c0,0.5,0,1,0,1.5c0,1.8,0,1.8,1.8,1.8
		c0.6,0,0.7-0.2,0.7-0.7c0-0.8,0-1.6,0-2.5c0-0.5,0.1-0.8,0.7-0.7c0.1,0,0.3,0,0.4,0c0.7,0.1,0.9-0.1,0.9-0.8c0-4.8,0-9.7,0-14.5
		c0-0.2,0-0.5,0-0.8c-0.5,0-0.9,0-1.4,0c-0.4,0-0.5-0.1-0.5-0.5c0-0.2,0-0.5,0-0.7c0-0.9,0-1.7,0-2.6c-0.7,0-1.3,0-1.9,0
		c-0.6,0-0.7,0.2-0.7,0.7c0,0.7,0,1.5,0,2.2c0,1,0,1-1,1C9.9,34.5,9.7,34.5,9.3,34.5z M32.6,34.5c0,0.4,0,0.7,0,0.9
		c0,4.6,0,9.1,0,13.7c0,1.4,0,1.4,1.4,1.5c0.4,0,0.6,0.2,0.5,0.6c0,0.5,0,1,0,1.5c0,2,0,2,2,1.9c0.4,0,0.6-0.2,0.6-0.5
		c0-0.7,0-1.5,0-2.2c0-1.4-0.1-1.2,1.1-1.1c0.6,0,0.8-0.2,0.8-0.8c0-4.9,0-9.7,0-14.6c0-0.2,0-0.5,0-0.8c-0.5,0-0.9,0-1.3,0
		c-0.5,0-0.6-0.1-0.6-0.6c0-0.9,0-1.8,0-2.7c0-0.2-0.2-0.5-0.4-0.5c-0.7-0.1-1.3,0-2,0c0,0.3-0.1,0.5-0.1,0.8c0,0.6,0,1.3,0,1.9
		c0,1.4,0.1,1.1-1.1,1.2C33.2,34.5,33,34.5,32.6,34.5z M46.7,58.4c0-0.2,0.1-0.2,0.1-0.3c0-0.4,0-0.8,0-1.2c0-1,0-1-1-1
		c-14.3,0-28.5,0-42.8,0c-1.6,0-1.6,0-1.6,1.6c0,0.9,0,0.9,0.9,0.9c14.5,0,29,0,43.6,0C46.1,58.4,46.4,58.4,46.7,58.4z M5.4,34.5
		c0,0.4,0,0.6,0,0.9c0,4.5,0,9,0,13.6c0,1.6,0,1.6,1.7,1.6c0.7,0,0.8-0.3,0.8-0.9c0-4.8,0-9.6,0-14.4c0-0.2,0-0.3,0-0.5
		c-0.1-0.2-0.2-0.4-0.4-0.4C6.8,34.5,6.1,34.5,5.4,34.5z M19.5,34.5c-0.6,0-1.1,0-1.6,0c-0.7-0.1-0.8,0.2-0.8,0.9
		c0,4.5,0,9.1,0,13.6c0,1.6,0,1.6,1.7,1.6c0.6,0,0.8-0.2,0.8-0.8c0-4.9,0-9.7,0-14.6C19.5,35.1,19.5,34.8,19.5,34.5z M28.8,34.5
		c0,0.3,0,0.6,0,0.9c0,4.5,0,9.1,0,13.6c0,1.6,0,1.6,1.6,1.6c0.9,0,0.9,0,0.9-0.9c0-4.8,0-9.6,0-14.4c0-0.1,0-0.2,0-0.3
		c0-0.4-0.1-0.5-0.5-0.5C30.1,34.6,29.5,34.5,28.8,34.5z M42.9,34.5c-0.6,0-1.1,0-1.6,0c-0.7-0.1-0.8,0.2-0.8,0.9
		c0,4.5,0,9.1,0,13.6c0,1.6,0,1.6,1.7,1.6c0.6,0,0.8-0.2,0.8-0.8c0-4.9,0-9.7,0-14.6C42.9,35.1,42.9,34.8,42.9,34.5z M41.7,52
		c-0.5,0-1,0-1.5,0c-1.9,0-1.9,0-1.8,1.9c0,0.5,0.2,0.6,0.6,0.6c1.3,0,2.7,0,4,0c1.9,0,1.9,0,1.8-1.9c0-0.5-0.2-0.6-0.6-0.6
		C43.4,52.1,42.6,52,41.7,52z M38.4,30.7c0,0.6,0,1.2,0,1.7c0,0.6,0.2,0.7,0.7,0.7c1.5,0,3,0,4.5,0c1.4,0,1.2,0,1.2-1.2
		c0-1.4,0.1-1.2-1.2-1.2c-0.9,0-1.8,0-2.7,0C40.2,30.7,39.4,30.7,38.4,30.7z M9.7,52c-1.6,0-3,0-4.5,0c-1.8,0-1.8,0-1.8,1.8
		c0,0.5,0.2,0.7,0.7,0.7c1.3,0,2.7,0,4,0c0.5,0,1.1,0,1.6,0C9.7,53.7,9.7,52.9,9.7,52z M15.2,54.5c1.6,0,3.1,0,4.5,0
		c1.8,0,1.8,0,1.8-1.8c0-0.5-0.2-0.7-0.7-0.6c-1.6,0-3.3,0-4.9,0c-0.2,0-0.5,0-0.7,0C15.2,52.9,15.2,53.7,15.2,54.5z M33.1,52
		c-1.6,0-3,0-4.5,0c-1.8,0-1.8,0-1.8,1.8c0,0.5,0.1,0.7,0.6,0.7c1.5,0,3,0,4.5,0c0.4,0,0.8,0,1.2,0C33.1,53.7,33.1,52.9,33.1,52z
		 M9.7,30.7c-1.6,0-3.1,0-4.6,0c-1.7,0-1.7,0-1.7,1.7c0,0.6,0.2,0.7,0.7,0.7c1.7,0,3.3,0,5,0c0.2,0,0.4,0,0.6-0.1
		C9.7,32.2,9.7,31.5,9.7,30.7z M15.2,33c0.3,0,0.5,0.1,0.8,0.1c1.2,0,2.5,0,3.7,0c2.1,0,1.7,0.3,1.8-1.9c0-0.5-0.2-0.6-0.6-0.6
		c-1.1,0-2.2,0-3.3,0c-0.8,0-1.6,0-2.4,0C15.2,31.5,15.2,32.2,15.2,33z M33.1,30.7c-1.6,0-3.1,0-4.6,0c-1.7,0-1.7,0-1.7,1.7
		c0,0.5,0.2,0.7,0.7,0.7c1.7,0,3.3,0,5,0c0.2,0,0.4,0,0.6-0.1c0-0.6,0-1.1,0-1.7C33.1,31.1,33.1,30.9,33.1,30.7z"/>
	<path d="M49.5,0c5.4-0.1,10.5,4.4,10.5,10.5c0,5.5-4.3,10.4-10.4,10.4c-6.2,0-10.5-5.1-10.5-10.5C39.1,4.4,44-0.1,49.5,0z
		 M49.5,1.4c-5,0-9.1,4-9.1,9c0,4.9,4.1,9.1,9,9.1c5.2-0.1,9-4.1,9.1-9C58.5,5.5,54.4,1.4,49.5,1.4z"/>
	<path d="M56,22.4c0,0.2,0,0.4,0,0.6c0,4.9,0,9.8,0,14.7c0,2.6-2.1,4.6-4.7,4.6c-0.5,0-0.6-0.2-0.6-0.6c0-0.4-0.1-0.8,0.6-0.8
		c2-0.1,3.3-1.4,3.3-3.4c0-4.6,0-9.3,0-13.9C54.6,22.2,54.6,22.2,56,22.4z"/>
	<path d="M35.1,11.1c0.1-0.5,0-1,0.2-1.3c0.1-0.2,0.9-0.2,1,0c0.2,0.3,0.2,0.8,0.2,1.3C36.1,11.1,35.7,11.1,35.1,11.1z"/>
	<path d="M46.8,40.8c0.5,0.1,1,0.1,1.3,0.3c0.2,0.1,0.2,0.9,0,1c-0.3,0.2-0.8,0.2-1.3,0.3C46.8,41.8,46.8,41.4,46.8,40.8z"/>
	<path d="M40.3,25.3c0,0.1,0.1,0.1,0.1,0.1c0.2,1.3,0.2,1.3-1.1,1.3c-10.1,0-20.2,0-30.3,0c-1.3,0-1.3,0-1.1-1.4
		C18.7,25.3,29.5,25.3,40.3,25.3z"/>
	<path d="M50.1,15.1c0,0.5,0,0.9,0,1.4c0,0.6-0.4,0.5-0.7,0.4c-0.3,0-0.8,0.1-0.7-0.4c0.1-1-0.1-1.5-1.3-1.7c-1-0.2-1.5-1-1.6-2.1
		c0.7,0,1.3-0.3,1.7,0.5c0.5,0.7,3.1,0.7,3.7,0c0.2-0.3,0.3-0.8,0.3-1.2c-0.1-0.5-0.5-0.8-1-0.9c-0.7,0-1.3,0-2,0
		c-1.4,0-2.6-1.1-2.7-2.5c-0.1-1.5,0.9-2.6,2.3-2.8c0.5-0.1,0.6-0.2,0.6-0.7c0-0.4,0-0.8,0-1.3c0.5,0,0.9,0,1.4,0c0,0.4,0,0.9,0,1.3
		c0,0.4,0.1,0.6,0.5,0.6C52,6,52.8,6.8,53.1,8.2c-0.6,0-1.2,0.3-1.7-0.5C50.9,7,48,7,47.6,7.7c-0.2,0.3-0.3,0.8-0.2,1.2
		c0.1,0.5,0.6,0.8,1.1,0.8c0.7,0,1.4,0,2.1,0c1.1,0,1.8,0.6,2.3,1.6c0.5,1,0.3,2-0.5,2.8c-0.6,0.5-1.4,0.8-2.1,1.2
		C50.3,15.2,50.2,15.2,50.1,15.1z"/>
</g>
</svg>
