<?xml version="1.0" encoding="utf-8"?>
<!-- Generator: Adobe Illustrator 19.0.0, SVG Export Plug-In . SVG Version: 6.00 Build 0)  -->
<svg version="1.1" id="Layer_1" xmlns="http://www.w3.org/2000/svg" xmlns:xlink="http://www.w3.org/1999/xlink" x="0px" y="0px"
	 viewBox="-281.5 371.2 74.2 53.8" style="enable-background:new -281.5 371.2 74.2 53.8;" xml:space="preserve">
<g>
	<path d="M-223.8,391.8c0,4.7-1.4,8.9-4.2,12.6c-0.3,0.4-0.9,0.8-0.2,1.3c0.5,0.4,0.7,1.6,1.8,0.8c0.4-0.3,0.7,0.1,0.9,0.3
		c4.4,4.4,8.7,8.7,13,13.2c1.2,1.2,1.1,2.9,0,4c-1.1,1.1-2.8,1.2-4,0.1c-4.4-4.4-8.8-8.8-13.2-13.2c-0.3-0.3-0.6-0.6-0.1-1
		c0.4-0.4,0.1-0.6-0.1-0.9c-0.6-0.7-1.1-1.3-2.3-0.4c-7,5.3-16.2,5.5-23.5,0.8c-7.2-4.7-10.8-13.5-8.8-22.1
		c1.9-8.3,8.8-14.6,17.3-15.8C-234.9,369.7-224,379.2-223.8,391.8z M-261.6,391.8c0,9.6,7.6,17.3,17.1,17.4
		c9.5,0.1,17.2-7.7,17.3-17.3c0-9.5-7.7-17.3-17.1-17.3C-253.9,374.6-261.6,382.3-261.6,391.8z"/>
	<path d="M-244.4,421.7c-6,0-12,0-18,0c-1.3,0-1.7-0.4-1.5-1.6c0.1-0.5,0.1-1,0-1.5c-0.6-3.7,1.3-5.9,4.2-7.6
		c0.5-0.3,0.8-0.3,1.3,0.1c8.1,5.6,16.5,6.1,25.2,1.7c0.6-0.3,1-0.2,1.5,0.3c2.1,2.1,4.1,4.2,6.2,6.3c0.6,0.6,0.7,1.3,0.4,2
		c-0.2,0.7-0.9,0.4-1.4,0.4C-232.4,421.7-238.4,421.7-244.4,421.7z"/>
	<path d="M-274,415c-2.1,0-4.3,0-6.4,0c-0.8,0-1.2-0.2-1.1-1.1c0,0,0-0.1,0-0.1c-0.1-5.3-0.1-5.3,4.3-8.3c1.8-1.2,3.6-2.4,5.5-3.3
		c0.9-0.4,1.2-1,1.2-2c-0.1-1,0-2.1,0-3.1c0-1.2,0.1-2.3-0.9-3.2c-0.4-0.4-0.4-1-0.4-1.5c0-2.4-0.1-4.8,0-7.3
		c0.1-3.2,2.8-5.6,5.9-5.6c1,0,1.3,0.2,0.7,1.2c-3.1,5.9-3.7,12.2-1.7,18.6c1,3.1,2.5,5.9,4.7,8.3c0.8,0.9,0.7,1.3-0.2,1.9
		c-1.8,1.2-3.5,2.6-4.1,4.9c-0.2,0.6-0.6,0.5-1.1,0.5C-269.8,415-271.9,415-274,415z"/>
	<path d="M-216.9,388.8c0,1.1,0,2.1,0,3.2c0,0.6,0.1,1.3-0.4,1.7c-1.2,1.2-0.8,2.7-1,4.1c-0.4,2.6,0.4,4.3,3,5.4
		c2.3,1,4.3,2.6,6.2,4.2c1.2,0.9,1.8,2.1,1.7,3.6c-0.1,1,0,2.1,0,3.1c0,0.7-0.2,1-0.9,1c-1.4,0-2.9,0-4.3,0c-0.6,0-1-0.2-1.4-0.6
		c-3.1-3.2-6.3-6.4-9.5-9.5c-0.5-0.5-0.6-0.9-0.2-1.6c3.8-7.6,3.8-15.1-0.1-22.7c-0.5-1-0.2-1.1,0.7-1.1c3.3,0,5.9,2.4,6.1,5.7
		C-216.9,386.4-216.9,387.6-216.9,388.8C-216.9,388.8-216.9,388.8-216.9,388.8z"/>
	<path d="M-236.4,390.6c0,1.3,0,2.5,0,3.8c0,1.2-0.3,2.2-1.1,3c-0.4,0.4-0.5,0.8-0.5,1.3c0,1.7,0,3.3,0,5c0,0.7-0.2,1.1-0.9,1.4
		c-3.7,1.5-7.4,1.5-11.1,0c-0.7-0.3-0.9-0.7-0.9-1.4c0.1-1.1,0-2.2,0-3.4c0-1.3,0.2-2.6-1-3.7c-0.5-0.5-0.6-1.3-0.6-2
		c0-2.6,0-5.3,0-7.9c0.1-4.1,3.1-7.2,7.2-7.2c1.1,0,2.2-0.1,3.2,0.2c3.2,0.6,5.6,3.5,5.7,6.8C-236.3,387.8-236.4,389.2-236.4,390.6z
		"/>
</g>
</svg>
