<?xml version="1.0" encoding="utf-8"?>
<!-- Generator: Adobe Illustrator 19.0.0, SVG Export Plug-In . SVG Version: 6.00 Build 0)  -->
<svg version="1.1" id="Layer_1" xmlns="http://www.w3.org/2000/svg" xmlns:xlink="http://www.w3.org/1999/xlink" x="0px" y="0px"
	 viewBox="-271.2 369.2 56.4 55.7" style="enable-background:new -271.2 369.2 56.4 55.7;" xml:space="preserve">
<g>
	<path d="M-253.4,409.6c0.6,0,1.2,0,1.9,0c0,3.2,0,6.4,0,9.6c0.2,0,0.3,0,0.4,0c10,0,20,0,30,0c0.4,0,0.5-0.1,0.5-0.5
		c0-12.5,0-25,0-37.6c0-0.1,0-0.3,0-0.5c-0.6,0-1.2,0-1.9,0c-0.5,0-1.1,0-1.6,0c-0.3,0-0.4,0.1-0.4,0.4c0,0.5,0,1,0,1.5
		c-7.7,0-15.3,0-23.1,0c0-0.5,0-1,0-1.5c0-0.3-0.1-0.4-0.4-0.4c-1,0-2,0-3.1,0c-0.1,0-0.2,0-0.4,0c0,4.5,0,8.9,0,13.5
		c-0.6,0-1.2,0-1.7,0c-0.1,0-0.2-0.1-0.2-0.2c0-0.1,0-0.2,0-0.3c0-4.8,0-9.6,0-14.4c0-0.5,0-0.5,0.5-0.5c1.6,0,3.2,0,4.9,0
		c0.4,0,0.5-0.1,0.4-0.4c0-0.5,0-1,0-1.5c-0.1,0-0.2,0-0.4,0c-2,0-4.1,0-6.1,0c-0.9,0-1.2,0.3-1.2,1.2c0,3.9,0,7.8,0,11.7
		c0,0.5,0,0.5-0.5,0.5c-0.3,0-0.7,0-1,0c-0.3,0-0.4-0.1-0.4-0.4c0-1.6,0-3.3,0-4.9c0-2.4,0-4.7,0-7.1c0-1.8,1.2-3,3-3
		c2.5,0,5,0,7.5,0c0.2,0,0.5-0.1,0.7-0.2c0.7-0.5,1.4-0.7,2.3-0.7c0.8,0,1.7,0,2.5,0c0.2,0,0.3-0.1,0.4-0.3c0.2-2.5,2.2-4.4,4.7-4.5
		c2.5,0,4.5,1.9,4.8,4.4c0,0.3,0.2,0.4,0.5,0.4c0.8,0,1.6,0,2.4,0c0.9,0,1.6,0.3,2.3,0.8c0.2,0.1,0.4,0.2,0.6,0.2c2.5,0,5,0,7.6,0
		c1.5,0,2.6,0.9,2.9,2.2c0.1,0.3,0.1,0.5,0.1,0.8c0,14.6,0,29.3,0,43.9c0,1.8-1.2,3-3.1,3c-12.1,0-24.1,0-36.2,0c-1.8,0-3-1.2-3-3
		c0-5.2,0-10.4,0-15.7c0-0.5,0-0.5,0.5-0.5c0.4,0,0.7,0,1.1,0c0.2,0,0.3,0.1,0.3,0.3c0,0.1,0,0.2,0,0.3c0,5.2,0,10.3,0,15.5
		c0,0.8,0.3,1.2,1.2,1.2c12,0,24.1,0,36.1,0c0.8,0,1.2-0.4,1.2-1.2c0-14.6,0-29.2,0-43.7c0-0.9-0.4-1.2-1.2-1.2c-2.1,0-4.1,0-6.2,0
		c-0.1,0-0.3,0-0.3,0c0,0.6,0,1.1,0,1.7c0,0.3,0.2,0.3,0.4,0.3c1.6,0,3.2,0,4.8,0c0.6,0,0.6,0,0.6,0.6c0,13.7,0,27.4,0,41.2
		c0,0.6,0,0.6-0.6,0.6c-11.2,0-22.4,0-33.5,0c-0.5,0-0.5,0-0.5-0.5c0-3.5,0-7,0-10.5C-253.4,409.9-253.4,409.7-253.4,409.6z
		 M-233.1,375.8c0-0.5,0-1,0-1.4c0-0.3,0-0.6-0.1-0.9c-0.3-1.5-1.5-2.5-2.9-2.5c-1.5,0.1-2.7,1.2-2.8,2.7c0,0.5,0,1.1,0,1.6
		c0,0.1,0,0.3,0,0.4c-0.2,0-0.3,0-0.5,0c-1.4,0-2.8,0-4.1,0c-1.2,0-2.1,0.8-2.1,2.1c0,0.8,0,1.6,0,2.4c0,0.4,0.1,0.4,0.4,0.4
		c6.1,0,12.3,0,18.4,0c0.1,0,0.3,0,0.4,0c0-0.1,0-0.1,0-0.1c0-0.9,0-1.7,0-2.6c0-1.3-0.8-2.1-2.1-2.1c-1.4,0-2.7,0-4.1,0
		C-232.8,375.9-232.9,375.8-233.1,375.8z"/>
	<path d="M-261.8,403.4c-3.1-3.1-6.3-6.3-9.5-9.5c0.4-0.4,0.8-0.8,1.3-1.3c0.7,0.7,1.4,1.4,2.1,2.1c0.5-0.5,1-1,1.5-1.6
		c-0.1-0.1-0.3-0.3-0.5-0.5c-0.5-0.5-1-1-1.6-1.6c-0.3-0.3-0.4-0.6-0.3-1c0-0.1,0-0.3-0.1-0.4c-0.2-0.3-0.5-0.5-0.7-0.7
		c-1.1-1.2-1.1-3,0.2-4.2c1.1-1.1,2.9-1.1,4.1,0c0.1,0.1,0.3,0.3,0.4,0.4c0.2,0.2,0.4,0.4,0.9,0.3c0.2-0.1,0.6,0.1,0.7,0.3
		c3.6,3.5,7.1,7.1,10.7,10.6c3.5,3.5,6.9,6.9,10.4,10.4c0.8,0.8,1.4,1.6,1.9,2.5c1,2.1,2.1,4.2,3.1,6.3c0.2,0.5,0.2,0.9-0.1,1.2
		c-0.3,0.3-0.7,0.4-1.2,0.1c-2.5-1.2-5-2.5-7.5-3.8c-0.2-0.1-0.3-0.2-0.4-0.3c-6-6-12.1-12.1-18.1-18.1c-0.1-0.1-0.2-0.2-0.2-0.4
		c-0.6,0.6-1.1,1.1-1.5,1.6c2,2,4,4,5.9,5.9C-260.9,402.5-261.3,403-261.8,403.4z M-263.5,393.2c5.9,6,11.9,11.9,17.8,17.9
		c0.8-0.8,1.6-1.6,2.4-2.4c-5.9-5.9-11.9-11.9-17.8-17.8C-261.9,391.6-262.7,392.4-263.5,393.2z M-262.5,389.4c-0.5-0.5-1-1-1.4-1.5
		c-0.8,0.8-1.6,1.6-2.4,2.4c0.5,0.5,1,1,1.5,1.5C-264.1,391-263.3,390.2-262.5,389.4z M-244,412.2c1.3,0.6,2.5,1.3,3.8,1.9
		c0,0,0,0,0.1-0.1c-0.6-1.3-1.3-2.5-1.9-3.8C-242.7,410.9-243.3,411.5-244,412.2z M-265.8,386.9c-0.2-0.1-0.3-0.3-0.5-0.5
		c-0.1-0.1-0.2-0.3-0.4-0.4c-0.4-0.3-0.9-0.3-1.3,0.1c-0.5,0.4-0.6,1-0.3,1.4c0.3,0.3,0.7,0.6,1,0.9
		C-266.8,387.9-266.3,387.4-265.8,386.9z"/>
	<path d="M-225.5,395.2c0,0.6,0,1.2,0,1.8c-4.5,0-8.9,0-13.4,0c0-0.6,0-1.2,0-1.8C-234.4,395.2-230,395.2-225.5,395.2z"/>
	<path d="M-225.5,389.4c0,0.6,0,1.2,0,1.8c-0.1,0-0.3,0-0.4,0c-4.2,0-8.4,0-12.6,0c-0.4,0-0.5-0.1-0.5-0.5c0-0.5,0-0.9,0-1.4
		C-234.4,389.4-230,389.4-225.5,389.4z"/>
	<path d="M-246.3,391c0.5-0.5,0.9-0.9,1.4-1.4c0.3,0.3,0.6,0.7,1,1.1c0.4-1,0.8-1.8,1.3-2.8c0.6,0.3,1.1,0.5,1.7,0.8
		c0,0.1-0.1,0.2-0.1,0.3c-0.6,1.3-1.1,2.5-1.7,3.8c-0.1,0.2-0.2,0.3-0.5,0.3c-0.6,0.1-1.1-0.1-1.5-0.6
		C-245.2,392-245.8,391.5-246.3,391z"/>
	<path d="M-244.9,395.4c0.3,0.3,0.6,0.7,1,1.1c0.4-0.9,0.8-1.8,1.2-2.7c0.6,0.3,1.1,0.5,1.7,0.8c-0.1,0.2-0.1,0.3-0.2,0.4
		c-0.5,1.2-1.1,2.4-1.6,3.6c-0.1,0.2-0.2,0.3-0.5,0.3c-0.6,0.1-1.1-0.1-1.5-0.6c-0.5-0.6-1-1-1.5-1.5
		C-245.8,396.3-245.4,395.9-244.9,395.4z"/>
	<path d="M-235.1,373c0,0.6,0,1.2,0,1.9c-0.6,0-1.2,0-1.8,0c0-0.6,0-1.2,0-1.9C-236.3,373-235.8,373-235.1,373z"/>
</g>
</svg>
