<?xml version="1.0" encoding="utf-8"?>
<!-- Generator: Adobe Illustrator 19.0.0, SVG Export Plug-In . SVG Version: 6.00 Build 0)  -->
<svg version="1.1" id="Layer_1" xmlns="http://www.w3.org/2000/svg" xmlns:xlink="http://www.w3.org/1999/xlink" x="0px" y="0px"
	 viewBox="-269.5 371 51.5 51.5" style="enable-background:new -269.5 371 51.5 51.5;" xml:space="preserve">
<g>
	<path d="M-259.8,422.5c-2.6,0-5.3,0-7.9,0c-1.1,0-1.5-0.4-1.7-1.5c-0.2-2.1,0-4.2,0.2-6.3c0.1-1,0.3-2,0.4-3c0.2-1.3,0.8-2,2.1-2.3
		c0.9-0.2,1.8-0.3,2.7-0.5c0.6-0.1,1,0.1,1.3,0.6c0.7,1.1,1.5,2.1,2.3,3.2c0.5,0.7,0.5,0.7,0.9,0c0.8-1.1,1.6-2.2,2.3-3.2
		c0.3-0.5,0.7-0.6,1.3-0.5c1,0.2,2,0.3,3,0.5c1.1,0.2,1.7,1,1.9,2.1c0.3,2.3,0.7,4.6,0.8,6.9c0,0.9,0,1.8-0.1,2.7
		c-0.1,0.9-0.6,1.3-1.6,1.3C-254.5,422.5-257.2,422.5-259.8,422.5z"/>
	<path d="M-227.6,422.5c-2.6,0-5.2,0-7.8,0c-1.2,0-1.7-0.4-1.8-1.7c-0.2-2.6,0.1-5.1,0.5-7.7c0.1-0.6,0.1-1.1,0.2-1.7
		c0.1-1,0.8-1.8,1.8-2c1-0.2,2-0.4,3-0.6c0.6-0.1,0.9,0.1,1.2,0.5c0.8,1.1,1.6,2.2,2.3,3.3c0.3,0.5,0.5,0.4,0.8,0
		c0.8-1.1,1.6-2.2,2.3-3.3c0.3-0.5,0.7-0.6,1.3-0.5c1,0.2,2,0.3,3,0.5c1,0.2,1.7,0.8,1.9,1.8c0.4,2.8,0.9,5.6,0.8,8.4
		c0,0.4,0,0.9-0.1,1.3c-0.1,1-0.6,1.4-1.6,1.4C-222.3,422.5-225,422.5-227.6,422.5z"/>
	<path d="M-243.8,393.4c-2.5,0-5.1,0-7.6,0c-1.5,0-2-0.5-1.9-2.1c0.1-1.9,0.5-3.8,0.7-5.8c0.1-1.1,0.8-1.7,1.7-2
		c1.1-0.3,2.2-0.4,3.3-0.6c0.5-0.1,0.8,0.2,1,0.5c0.8,1.1,1.6,2.2,2.4,3.4c0.3,0.5,0.5,0.4,0.8,0c0.8-1.1,1.6-2.2,2.3-3.3
		c0.3-0.5,0.7-0.7,1.3-0.6c1,0.2,1.9,0.3,2.9,0.5c1.1,0.2,1.8,0.9,1.9,2.1c0.3,1.9,0.6,3.8,0.7,5.8c0.1,1.4-0.4,2-1.8,2
		C-238.6,393.4-241.2,393.4-243.8,393.4z"/>
	<path d="M-264.3,401.6c0-2.8,2.1-4.9,4.8-4.7c2.6,0.2,4.5,2.6,4.1,5.3c-0.2,1.6-0.8,3-2.1,4.1c-1.4,1.3-3.2,1.3-4.7,0
		C-263.5,405.3-264.3,403.4-264.3,401.6z"/>
	<path d="M-223.1,402.3c0,1-0.6,2.5-1.8,3.8c-1.5,1.6-3.5,1.7-5.1,0.2c-1.5-1.4-2.2-3.2-2-5.2c0.3-2.6,2.4-4.3,4.8-4.1
		C-224.9,397.1-223.1,399.1-223.1,402.3z"/>
	<path d="M-244.3,371c2.9,0,4.9,1.8,5,4.2c0.1,2.2-0.6,4-2.3,5.4c-1.2,1.1-2.7,1.1-4.1,0.2c-2.2-1.5-3.2-4.9-2.1-7.1
		C-246.9,372-245.6,371-244.3,371z"/>
	<path d="M-245,399.3c0-0.7,0-1.4,0-2.2c0-0.9,0.5-1.4,1.2-1.4c0.7,0,1.2,0.5,1.2,1.4c0,1.4,0,2.8,0,4.3c0,0.5,0.1,0.7,0.5,0.9
		c1.3,0.7,2.7,1.5,4,2.3c0.5,0.3,0.8,0.7,0.7,1.3c-0.1,0.5-0.4,0.8-1,1c-0.4,0.1-0.7-0.1-1.1-0.3c-1.3-0.7-2.6-1.5-3.9-2.2
		c-0.4-0.2-0.7-0.3-1.1,0c-1.3,0.8-2.6,1.5-3.9,2.2c-0.8,0.5-1.5,0.3-1.9-0.3c-0.4-0.7-0.1-1.4,0.7-1.8c1.3-0.7,2.5-1.5,3.8-2.2
		c0.4-0.2,0.6-0.5,0.6-0.9C-245,400.7-245,400-245,399.3z"/>
</g>
</svg>
