<?xml version="1.0" encoding="utf-8"?>
<!-- Generator: Adobe Illustrator 19.0.0, SVG Export Plug-In . SVG Version: 6.00 Build 0)  -->
<svg version="1.1" id="Layer_1" xmlns="http://www.w3.org/2000/svg" xmlns:xlink="http://www.w3.org/1999/xlink" x="0px" y="0px"
	 viewBox="-283.1 369.6 61.8 56.1" style="enable-background:new -283.1 369.6 61.8 56.1;" xml:space="preserve">
<style type="text/css">
	.st0{stroke:#000000;stroke-width:0.5;stroke-miterlimit:10;}
</style>
<g>
	<path class="st0" d="M-282.9,373.7c0.3,0,0.2-0.2,0.3-0.4c0.8-1.7,2.1-2.6,4-2.6c8.5,0,17,0,25.6,0c0.3,0,0.7-0.1,0.7,0.5
		c0,0.2-0.1,0.4-0.4,0.4c-0.5,0-0.9,0-1.4,0c-8.1,0-16.2,0-24.3,0c-2.3,0-3.6,1.4-3.6,3.6c0,12,0,24,0,36c0,1.8,1,3.1,2.6,3.5
		c0.3,0.1,0.6,0.1,0.9,0.1c15.2,0,30.5,0,45.7,0c2,0,3.6-1.6,3.6-3.6c-0.1-4.7,0-9.4,0-14.1c0-0.2-0.1-0.5,0.3-0.6
		c0.5-0.1,0.6,0.2,0.6,0.6c0,3.8,0,7.7,0,11.5c0,1,0,2,0,3c0,2.3-1.8,4.1-4.1,4.1c-5.4,0-10.8,0-16.2,0c-0.7,0-0.8,0-0.5,0.7
		c0.6,1.5,1.2,2.9,1.8,4.4c0.2,0.4,0.4,0.5,0.9,0.5c2,0,4,0,6,0c0.5,0,0.7,0.1,0.6,0.6c0,0.7,0,1.4,0,2.1c0,0.6,0.2,0.7,0.7,0.7
		c3,0,5.9,0,8.9,0c0.2,0,0.5-0.1,0.6,0.3c0,0.4-0.1,0.5-0.5,0.5c-2.7,0-5.4,0-8.1,0c-14,0-28,0-41.9,0c-0.2,0-0.6,0.2-0.7-0.2
		c-0.1-0.5,0.1-0.6,0.6-0.6c2.9,0,5.9,0,8.8,0c0.8,0,0.8,0,0.8-0.8c0-0.7,0-1.4,0-2c0-0.5,0.2-0.6,0.6-0.6c2,0,4.1,0,6.1,0
		c0.5,0,0.7-0.2,0.8-0.6c0.6-1.5,1.2-3,1.9-4.5c0.2-0.5,0.1-0.6-0.4-0.6c-5.5,0-11.1,0-16.6,0c-2,0-3.3-0.9-4.1-2.7
		c-0.1-0.1,0-0.3-0.3-0.3C-282.9,399.6-282.9,386.7-282.9,373.7z M-255.5,424.5c4.3,0,8.7,0,13,0c0.6,0,1.3,0.2,1.6-0.1
		c0.4-0.4,0.1-1.1,0.1-1.7c0.1-0.6-0.2-0.8-0.8-0.8c-6.6,0-13.1,0-19.7,0c-2.8,0-5.5,0-8.3,0c-0.5,0-0.6,0.1-0.6,0.6
		c0,0.4,0,0.8,0,1.3c-0.1,0.5,0.1,0.7,0.7,0.7C-264.8,424.5-260.1,424.5-255.5,424.5z M-255.4,421.2c2.3,0,4.5,0,6.8,0
		c0.5,0,0.5-0.1,0.3-0.5c-0.7-1.5-1.3-3.1-1.9-4.6c-0.1-0.4-0.3-0.5-0.7-0.5c-3,0-6,0-9,0c-0.4,0-0.6,0.1-0.8,0.5
		c-0.6,1.5-1.3,3-1.9,4.5c-0.2,0.6-0.2,0.6,0.4,0.6C-259.8,421.2-257.6,421.2-255.4,421.2z"/>
	<path class="st0" d="M-221.6,394.8c-2.6,0-5.3,0-7.9,0c-3.1,0-6.1,0-9.2,0c-0.3,0-0.6,0.1-0.9,0.3c-1.2,0.9-2.8,0.7-3.8-0.4
		c-1-1-1.2-2.6-0.3-3.8c0.2-0.3,0.3-0.6,0.3-0.9c0-4.6,0-9.3,0-13.9c0-0.4-0.1-0.7-0.3-1c-0.5-0.7-0.9-1.6-1.6-2
		c-0.7-0.3-1.6-0.1-2.5-0.1c-0.5,0-1,0-1.4,0c-0.9,0-1.5-0.6-1.5-1.5c0-0.9,0.6-1.5,1.5-1.5c1.4,0,2.8,0,4.2,0c0.8,0,1.5,0.4,2,1.1
		c0.7,1.1,1.4,2.2,2.1,3.3c0.1,0.1,0.1,0.2,0.1,0.3c0,0.8,0.5,0.7,1.1,0.7c2.6,0,5.2,0,7.8,0c0.5,0,0.7,0.1,0.6,0.6c0,2,0,3.9,0,5.9
		c0,0.5,0.1,0.6,0.6,0.6c0.8,0,1.6,0,2.3,0c0.4,0,0.6,0.1,0.6,0.6c0,2.8,0,5.7,0,8.5c0,0.5,0.1,0.8,0.7,0.7c1-0.2,1.9,0.2,2.7,0.8
		c0.7,0.5,1.5,1,2.2,1.4c0.2,0.1,0.3,0.3,0.6,0.2C-221.6,394.6-221.6,394.7-221.6,394.8z M-233.5,392.1
		C-233.5,392.1-233.5,392.1-233.5,392.1c1.4,0,2.9,0,4.3,0c0.4,0,0.5-0.1,0.5-0.5c0-2.6,0-5.3,0-7.9c0-0.4-0.1-0.5-0.5-0.5
		c-1.2,0-2.4,0-3.5,0c-0.3,0-0.4,0.1-0.4,0.5c0,1,0,2,0,2.9c0,0.1,0.1,0.4-0.1,0.4c-0.1,0-0.3-0.1-0.4-0.2c-0.8-0.7-1.5-0.8-2.4,0
		c-0.3,0.3-0.5,0.1-0.5-0.3c0-1,0-2,0-2.9c0-0.3,0-0.4-0.3-0.4c-1.2,0-2.5,0-3.7,0c-0.3,0-0.4,0.2-0.4,0.4c0,1.8,0,3.6,0,5.4
		c0,0.3,0.1,0.4,0.4,0.5c1,0.3,1.8,1,2.1,2.1c0.1,0.3,0.2,0.4,0.6,0.4C-236.3,392.1-234.9,392.1-233.5,392.1z M-234.9,380
		c-0.2-0.1-0.3-0.1-0.4-0.2c-0.8-0.7-1.7-0.8-2.5,0c-0.3,0.2-0.4,0.1-0.4-0.2c0-1,0-2,0-3c0-0.3-0.1-0.5-0.4-0.5c-0.6,0-1.2,0-1.9,0
		c-0.3,0-0.4,0.1-0.4,0.4c0,1.8,0,3.6,0,5.4c0,0.3,0.1,0.4,0.4,0.4c2.6,0,5.2,0,7.8,0c0.3,0,0.4-0.1,0.4-0.4c0-1.8,0-3.5,0-5.3
		c0-0.4-0.1-0.5-0.5-0.5c-0.5,0-1.1,0-1.6,0c-0.4,0-0.6,0.1-0.6,0.6C-234.8,377.7-234.9,378.8-234.9,380z M-244,371.1
		c-0.1,0.4,0,0.7-0.2,0.9c-0.3,0.3-0.1,0.6,0.1,0.9c0.4,0.5,0.8,1.1,1.2,1.6c0.3,0.4,0.4,0.7,0.4,1.2c0,4.5,0,9,0,13.5
		c0,0.6,0.1,0.6,0.6,0.4c0.4-0.1,0.2-0.4,0.2-0.7c0-4.4,0-8.9,0-13.3c0-0.7-0.1-1.2-0.5-1.8C-242.8,373.1-243.4,372.1-244,371.1z
		 M-224.7,393.7c-0.5-0.3-0.9-0.8-1.6-0.8c-3.8,0-7.7,0-11.5,0c-0.5,0-0.6,0.4-0.6,0.7c0,0.4,0.4,0.3,0.6,0.3c4.2,0,8.4,0,12.5,0
		C-225.1,393.9-224.9,394-224.7,393.7z M-241.3,390.4c-1.2,0-2.1,0.9-2.1,2.1c0,1.2,1,2.1,2.1,2.1c1.2,0,2.2-0.9,2.2-2
		C-239.1,391.4-240,390.4-241.3,390.4z M-247.5,372c0.6,0,1.1,0,1.7,0c0.5,0,0.9-0.1,0.9-0.7c0-0.5-0.4-0.6-0.8-0.6
		c-1.1,0-2.2,0-3.3,0c-0.4,0-0.8,0.2-0.7,0.7c0,0.5,0.3,0.6,0.8,0.6C-248.6,372-248,372-247.5,372z M-235.5,385.5
		c0.7-0.3,0.7-0.3,0.9-0.3c0.6,0.2,0.6,0.2,0.6-0.5c0-0.1,0-0.3,0-0.4c0-1.2,0-1.2-1.2-1.1c-0.3,0-0.4,0.1-0.4,0.4
		C-235.5,384.2-235.5,384.8-235.5,385.5z M-235.7,378.4c0-0.4,0-0.8,0-1.2c0-1.1-0.1-1.2-1.2-1c-0.2,0-0.3,0.1-0.3,0.3
		c0,0.5,0,1,0,1.5c0,0.2,0.1,0.3,0.2,0.2C-236.6,378-236.2,378.2-235.7,378.4z"/>
	<path class="st0" d="M-255.5,407.3c-7.4,0-14.9,0-22.3,0c-0.8,0-0.8,0-0.8-0.8c0-10.1,0-20.2,0-30.3c0-0.6,0.2-0.8,0.8-0.8
		c10.3,0,20.7,0,31,0c0.2,0,0.5-0.2,0.7,0.2c0.1,0.4,0,0.6-0.6,0.6c-4.8,0-9.7,0-14.5,0c-5.2,0-10.4,0-15.6,0
		c-0.6,0-0.7,0.1-0.7,0.7c0,9.6,0,19.2,0,28.8c0,0.6,0.2,0.7,0.7,0.7c14.4,0,28.7,0,43.1,0c0.8,0,0.8,0,0.8-0.8c0-2.9,0-5.8,0-8.7
		c0-0.3-0.1-0.6,0.4-0.6c0.5,0,0.4,0.3,0.4,0.6c0,3.2,0,6.4,0,9.6c0,0.5-0.1,0.7-0.7,0.7C-240.5,407.3-248,407.3-255.5,407.3
		C-255.5,407.3-255.5,407.3-255.5,407.3z"/>
	<path class="st0" d="M-252,402.4c-4,0-8.1,0-12.1,0c-0.3,0-0.6,0.1-0.6-0.4c0-0.4,0.1-0.5,0.5-0.5c1.4,0,2.8,0,4.1,0
		c6.7,0,13.5,0,20.2,0c0.2,0,0.5-0.2,0.7,0.2c0.1,0.4,0,0.6-0.6,0.6C-243.8,402.4-247.9,402.4-252,402.4z"/>
	<path class="st0" d="M-236.7,370.7c1.4,0,2.8,0,4.2,0c2.3,0,4.1,1.8,4.1,4.1c0,1.9,0,3.7,0,5.6c0,0.3,0.1,0.6-0.4,0.6
		c-0.5,0-0.4-0.3-0.4-0.6c0-1.7-0.1-3.5,0-5.2c0.1-2.1-1.6-3.7-3.6-3.7c-2.8,0.1-5.5,0-8.3,0c-0.2,0-0.5,0.1-0.5-0.3
		c0-0.4,0.1-0.6,0.5-0.6C-239.7,370.7-238.2,370.7-236.7,370.7z"/>
	<path class="st0" d="M-256.1,385.4c-2.7,0-5.3,0-8,0c-0.3,0-0.6,0.1-0.6-0.4c0-0.5,0.3-0.4,0.6-0.4c5.4,0,10.7,0,16.1,0
		c0.3,0,0.6,0,0.6,0.4c0,0.5-0.3,0.4-0.6,0.4C-250.7,385.4-253.4,385.4-256.1,385.4z"/>
	<path class="st0" d="M-256.1,393.9c-2.7,0-5.3,0-8,0c-0.3,0-0.6,0.1-0.6-0.4c0-0.5,0.3-0.4,0.6-0.4c5.4,0,10.7,0,16.1,0
		c0.3,0,0.6-0.1,0.6,0.4c0,0.5-0.3,0.4-0.6,0.4C-250.7,393.9-253.4,393.9-256.1,393.9z"/>
	<path class="st0" d="M-270.5,394.6c-0.7,0-1.3,0-2,0c-0.3,0-0.5-0.1-0.5-0.4c0-1.4,0-2.7,0-4.1c0-0.3,0.1-0.4,0.4-0.4
		c1.4,0,2.7,0,4.1,0c0.3,0,0.4,0.1,0.4,0.4c0,1.4,0,2.7,0,4.1c0,0.3-0.1,0.4-0.4,0.4C-269.1,394.6-269.8,394.6-270.5,394.6
		C-270.5,394.6-270.5,394.6-270.5,394.6z M-272.1,392.3c0.1,0.5-0.2,1.1,0.1,1.4c0.3,0.3,0.9,0.1,1.4,0.1c0,0,0,0,0.1,0
		c0.5,0,1.1,0.2,1.4-0.1c0.3-0.3,0.1-1,0.1-1.5c0-0.5,0.2-1.2-0.1-1.4c-0.3-0.4-1-0.1-1.5-0.1c-0.5,0-1.2-0.2-1.5,0.1
		C-272.3,391.1-272,391.7-272.1,392.3z"/>
	<path class="st0" d="M-270.6,403c-0.7,0-1.3,0-2,0c-0.3,0-0.4-0.1-0.4-0.4c0-1.4,0-2.7,0-4.1c0-0.3,0.1-0.4,0.4-0.4
		c1.4,0,2.7,0,4.1,0c0.3,0,0.4,0.1,0.4,0.4c0,1.4,0,2.7,0,4.1c0,0.3-0.1,0.4-0.4,0.4C-269.2,403-269.9,403-270.6,403z M-270.5,402.1
		c0.4,0,0.7,0,1.1,0c0.4,0,0.6-0.1,0.5-0.5c0-0.7,0-1.4,0-2c0-0.5-0.2-0.7-0.6-0.6c-0.3,0-0.6,0-0.9,0c-0.5,0-1.2-0.2-1.5,0.1
		c-0.3,0.3-0.1,1-0.1,1.5C-272.1,402.1-272.1,402.1-270.5,402.1z"/>
	<path class="st0" d="M-270.5,386.3c-0.6,0-1.3,0-1.9,0c-0.4,0-0.5-0.1-0.5-0.6c0-1.3,0-2.6,0-3.8c0-0.4,0.1-0.5,0.5-0.5
		c1,0,2,0,3,0c0.3,0,0.5,0.1,0.5,0.4c0,0.4-0.2,0.4-0.5,0.4c-0.7,0-1.4,0-2.1,0c-0.4,0-0.6,0.1-0.5,0.6c0,0.7,0,1.4,0,2.2
		c0,0.4,0.1,0.5,0.5,0.5c0.8,0,1.5,0,2.3,0c0.4,0,0.5-0.1,0.5-0.5c0-0.3,0-0.5,0.4-0.5c0.4,0,0.4,0.3,0.4,0.5c0,1.4,0,1.4-1.3,1.4
		C-269.8,386.3-270.1,386.3-270.5,386.3z"/>
	<path class="st0" d="M-255.8,413.6c0-0.3-0.3-0.2-0.4-0.3c-1.2-0.5-1.8-1.6-1.6-2.8c0.2-1.2,1.3-2,2.5-2c1.1,0,2.1,0.9,2.3,2.1
		c0.2,1.2-0.5,2.3-1.7,2.7c-0.2,0.1-0.4,0-0.4,0.2C-255.3,413.7-255.5,413.7-255.8,413.6z M-255.3,409.5c-0.9,0-1.6,0.7-1.6,1.6
		c0,0.9,0.7,1.6,1.6,1.6c0.9,0,1.6-0.7,1.6-1.6C-253.7,410.2-254.5,409.5-255.3,409.5z"/>
	<path class="st0" d="M-266.2,381.3c-0.1,0.1-0.2,0.2-0.3,0.3c-1.1,1-2.3,2.1-3.4,3.1c-0.2,0.2-0.4,0.3-0.6,0
		c-0.3-0.4-0.5-0.7-0.8-1c-0.2-0.2-0.2-0.4,0.1-0.6c0.2-0.2,0.4-0.2,0.6,0c0.6,0.7,0.6,0.6,1.3,0c0.8-0.8,1.6-1.5,2.5-2.3
		c0.1-0.1,0.2-0.3,0.4-0.1C-266.4,380.9-266.3,381.1-266.2,381.3z"/>
	<path class="st0" d="M-250.5,382.3c0,0.3,0,0.5-0.4,0.5c-0.3,0-0.5,0-0.5-0.4c0-0.3,0-0.5,0.4-0.5
		C-250.7,382-250.4,382-250.5,382.3z"/>
	<path class="st0" d="M-252.6,382c0.4-0.1,0.4,0.1,0.4,0.5c0,0.3-0.2,0.4-0.5,0.4c-0.3,0-0.4-0.2-0.4-0.5
		C-253,382.1-252.9,381.9-252.6,382z"/>
	<path class="st0" d="M-254.3,382c0.3-0.1,0.4,0.1,0.4,0.4c0,0.3-0.1,0.5-0.5,0.5c-0.3,0-0.5-0.1-0.5-0.5
		C-254.7,382.1-254.6,381.9-254.3,382z"/>
	<path class="st0" d="M-248.8,382.4c0,0.3-0.1,0.5-0.4,0.5c-0.3,0-0.5-0.1-0.5-0.4c0-0.3,0.1-0.5,0.4-0.5
		C-249,382-248.8,382.1-248.8,382.4z"/>
	<path class="st0" d="M-250.5,390.9c0,0.4-0.1,0.4-0.4,0.4c-0.3,0-0.4-0.1-0.4-0.4c0-0.3,0.1-0.4,0.4-0.4
		C-250.7,390.5-250.4,390.5-250.5,390.9z"/>
	<path class="st0" d="M-262.2,382.4c0,0.3,0,0.5-0.4,0.5c-0.3,0-0.4-0.1-0.4-0.5c0-0.3,0.1-0.5,0.4-0.4
		C-262.3,382-262.1,382-262.2,382.4z"/>
	<path class="st0" d="M-250.5,399.4c0.1,0.4-0.2,0.4-0.5,0.4c-0.4,0-0.4-0.2-0.4-0.5c0-0.3,0.2-0.4,0.5-0.4
		C-250.6,398.9-250.4,399-250.5,399.4z"/>
	<path class="st0" d="M-264.2,382.9c-0.3,0-0.5-0.1-0.4-0.4c0-0.3,0-0.5,0.4-0.5c0.3,0,0.5,0,0.5,0.4
		C-263.9,382.7-263.9,382.9-264.2,382.9z"/>
	<path class="st0" d="M-260.9,382c0.4-0.1,0.4,0.2,0.4,0.5c0,0.3-0.1,0.4-0.4,0.4c-0.3,0-0.5-0.1-0.4-0.5
		C-261.3,382.1-261.3,381.9-260.9,382z"/>
	<path class="st0" d="M-259.2,382c0.4-0.1,0.4,0.2,0.4,0.5c0,0.4-0.2,0.4-0.5,0.4c-0.3,0-0.4-0.2-0.4-0.5
		C-259.7,382.1-259.6,381.9-259.2,382z"/>
	<path class="st0" d="M-252.2,399.3c0.1,0.4-0.1,0.5-0.4,0.5c-0.3,0-0.5-0.1-0.5-0.4c0-0.3,0.1-0.4,0.4-0.4
		C-252.4,399-252.1,398.9-252.2,399.3z"/>
	<path class="st0" d="M-257.2,382.4c0.1,0.4-0.1,0.5-0.4,0.5c-0.3,0-0.4-0.2-0.4-0.4c0-0.3,0.1-0.5,0.4-0.5
		C-257.2,382-257.1,382.1-257.2,382.4z"/>
	<path class="st0" d="M-255.5,382.4c0,0.3-0.1,0.5-0.4,0.5c-0.3,0-0.4-0.2-0.4-0.5c0-0.3,0.1-0.4,0.4-0.4
		C-255.6,382-255.4,382.1-255.5,382.4z"/>
	<path class="st0" d="M-247.6,382c0.4-0.1,0.4,0.2,0.4,0.5c0,0.3-0.1,0.4-0.4,0.4c-0.4,0-0.4-0.2-0.4-0.5
		C-248.1,382.1-247.9,381.9-247.6,382z"/>
	<path class="st0" d="M-249.3,391.3c-0.3,0-0.4-0.1-0.4-0.4c0-0.4,0.2-0.4,0.5-0.4c0.4,0,0.4,0.2,0.4,0.5
		C-248.8,391.3-249.1,391.3-249.3,391.3z"/>
	<path class="st0" d="M-252.6,390.5c0.3,0,0.4,0.1,0.4,0.4c0,0.4-0.2,0.4-0.5,0.4c-0.3,0-0.4-0.1-0.4-0.4
		C-253,390.5-252.9,390.4-252.6,390.5z"/>
	<path class="st0" d="M-249.3,399c0.4-0.1,0.4,0.2,0.5,0.5c0,0.3-0.2,0.3-0.4,0.3c-0.3,0-0.5-0.1-0.5-0.4
		C-249.7,399.1-249.6,398.9-249.3,399z"/>
	<path class="st0" d="M-262.6,391.3c-0.3,0-0.5,0-0.5-0.4c0-0.3,0.1-0.5,0.4-0.5c0.3,0,0.4,0.1,0.4,0.4
		C-262.2,391.1-262.2,391.3-262.6,391.3z"/>
	<path class="st0" d="M-260.9,391.3c-0.4,0.1-0.4-0.1-0.4-0.4c0-0.4,0.2-0.4,0.5-0.4c0.4,0,0.4,0.2,0.4,0.5
		C-260.5,391.3-260.7,391.3-260.9,391.3z"/>
	<path class="st0" d="M-264.3,391.3c-0.3,0-0.4-0.1-0.4-0.4c0-0.3,0.1-0.4,0.4-0.4c0.3,0,0.4,0.1,0.4,0.5
		C-263.8,391.2-264,391.3-264.3,391.3z"/>
	<path class="st0" d="M-263.9,399.4c0,0.3-0.1,0.4-0.4,0.4c-0.3,0-0.4-0.1-0.4-0.5c0-0.3,0.2-0.4,0.4-0.4
		C-263.9,398.9-263.8,399.1-263.9,399.4z"/>
	<path class="st0" d="M-262.2,399.3c0,0.3,0,0.5-0.4,0.5c-0.3,0-0.5-0.1-0.5-0.4c0-0.3,0.1-0.4,0.4-0.4
		C-262.3,399-262.1,399-262.2,399.3z"/>
	<path class="st0" d="M-260.5,399.4c0.1,0.3-0.1,0.4-0.4,0.4c-0.3,0-0.4-0.1-0.4-0.4c0-0.4,0.2-0.4,0.5-0.4
		C-260.5,398.9-260.5,399.1-260.5,399.4z"/>
	<path class="st0" d="M-258.8,399.4c0.1,0.3-0.1,0.4-0.4,0.4c-0.3,0-0.4-0.1-0.4-0.4c0-0.3,0.1-0.4,0.5-0.4
		C-258.9,398.9-258.8,399.1-258.8,399.4z"/>
	<path class="st0" d="M-257.5,399.8c-0.3,0-0.5,0-0.5-0.4c0-0.3,0.1-0.5,0.4-0.5c0.3,0,0.4,0.1,0.4,0.4
		C-257.2,399.6-257.2,399.9-257.5,399.8z"/>
	<path class="st0" d="M-255.9,399c0.3,0,0.4,0.1,0.4,0.4c0,0.3-0.1,0.4-0.4,0.4c-0.3,0-0.4-0.1-0.4-0.5
		C-256.3,399-256.2,398.9-255.9,399z"/>
	<path class="st0" d="M-254.3,399.8c-0.3,0-0.4-0.1-0.4-0.4c0-0.3,0.1-0.4,0.5-0.4c0.3,0,0.4,0.2,0.4,0.4
		C-253.8,399.7-254,399.8-254.3,399.8z"/>
	<path class="st0" d="M-247.2,390.9c0,0.3-0.1,0.4-0.4,0.4c-0.3,0-0.4-0.1-0.4-0.5c0-0.3,0.2-0.4,0.4-0.4
		C-247.3,390.5-247.2,390.6-247.2,390.9z"/>
	<path class="st0" d="M-247.2,399.4c0,0.3-0.1,0.4-0.4,0.4c-0.3,0-0.4-0.1-0.4-0.4c0-0.3,0.1-0.4,0.5-0.4
		C-247.3,398.9-247.2,399.1-247.2,399.4z"/>
	<path class="st0" d="M-254.2,391.3c-0.3,0-0.4-0.1-0.4-0.4c0-0.3,0.1-0.4,0.5-0.4c0.3,0,0.4,0.2,0.4,0.4
		C-253.8,391.2-253.9,391.3-254.2,391.3z"/>
	<path class="st0" d="M-255.5,390.9c0,0.3-0.1,0.4-0.4,0.4c-0.4,0-0.4-0.2-0.4-0.5c0-0.3,0.2-0.4,0.5-0.4
		C-255.6,390.4-255.5,390.6-255.5,390.9z"/>
	<path class="st0" d="M-257.6,390.5c0.3,0,0.5,0.1,0.5,0.4c0,0.3-0.1,0.4-0.5,0.4c-0.3,0-0.4-0.2-0.4-0.4
		C-258,390.6-257.9,390.4-257.6,390.5z"/>
	<path class="st0" d="M-259.7,390.9c0-0.3,0.1-0.4,0.4-0.4c0.3,0,0.4,0.1,0.4,0.4c0,0.3-0.1,0.5-0.4,0.4
		C-259.6,391.3-259.7,391.2-259.7,390.9z"/>
</g>
</svg>
