<?xml version="1.0" encoding="utf-8"?>
<!-- Generator: Adobe Illustrator 19.0.0, SVG Export Plug-In . SVG Version: 6.00 Build 0)  -->
<svg version="1.1" id="Layer_1" xmlns="http://www.w3.org/2000/svg" xmlns:xlink="http://www.w3.org/1999/xlink" x="0px" y="0px"
	 viewBox="-281.3 368.2 58.5 60.4" style="enable-background:new -281.3 368.2 58.5 60.4;" xml:space="preserve">
<g>
	<path d="M-239.4,368.2c0,0.1,0,0.2,0.1,0.2c1,0.5,1.4,1.3,1.9,2.2c4.7,7.9,9.3,15.8,14,23.7c0.3,0.4,0.5,0.9,0.5,1.4
		c0.2,1.4-0.7,2.6-2,2.8c-0.4,0.1-0.8,0.1-1.2,0.1c-4.2,0-8.5,0-12.7,0c-0.5,0-1,0.2-1.4,0.5c-2.2,1.7-4.3,3.4-6.5,5.2
		c-0.4,0.3-0.9,0.6-1.4,0.3c-0.5-0.3-0.7-0.7-0.7-1.3c0-1.3,0-2.6,0-3.9c0-0.8,0-0.8-0.8-0.8c-2,0-3.9,0-5.9,0
		c-1.5,0-2.5-0.8-2.7-2.2c-0.1-0.7,0.1-1.4,0.5-2c3.8-6.4,7.6-12.8,11.5-19.2c1-1.6,2-3.3,2.9-4.9c0.4-0.7,0.9-1.4,1.7-1.8
		c0.1-0.1,0.2-0.1,0.2-0.3C-240.7,368.2-240.1,368.2-239.4,368.2z M-232.7,396.1c2.2,0,4.5,0,6.7,0c0.2,0,0.4,0,0.5,0
		c0.3,0,0.3-0.1,0.2-0.4c-0.1-0.1-0.2-0.3-0.2-0.4c-4.7-7.9-9.5-15.9-14.2-23.8c-0.1-0.1-0.2-0.3-0.2-0.4c-0.3-0.4-0.5-0.4-0.8,0
		c-0.1,0.1-0.1,0.2-0.2,0.4c-4.7,7.8-9.3,15.6-14,23.5c-0.2,0.4-0.8,0.8-0.5,1.2c0.2,0.3,0.8,0.1,1.3,0.1c2.6,0,5.1,0,7.7,0
		c0.6,0,1,0.2,1.2,0.8c0.2,0.5,0,1.1-0.5,1.3c-0.5,0.2-0.6,0.6-0.5,1c0,0.3,0,0.6,0,0.8c0,0.2-0.1,0.4,0.1,0.5
		c0.2,0.1,0.3-0.1,0.4-0.2c1.7-1.3,3.3-2.6,5-3.9c0.4-0.3,0.8-0.5,1.3-0.5C-237.3,396.1-235,396.1-232.7,396.1z"/>
	<path d="M-281.3,402.7c0-8.1,0-16.1,0-24.2c0-1.3,0.4-1.7,1.6-1.7c2.7,0,5.4,0,8.1,0c0.5,0,0.8-0.1,0.7-0.7c0-0.3,0-0.7,0-1
		c0-1,0.4-1.4,1.4-1.4c1.5,0,3,0,4.5,0c0.4,0,0.7-0.1,1-0.5c2.7-3.6,8.2-3.6,10.9,0c0.2,0.3,0.5,0.5,0.9,0.5c1.1,0,2.3,0,3.4,0
		c0.9,0,1.4,0.4,1.4,1.2c0,0.7-0.5,1.2-1.4,1.2c-1.4,0-2.8,0-4.1,0c-0.9,0-1.4-0.3-1.9-1c-1.6-2.7-5.6-2.9-7.3-0.3
		c-0.7,1.1-1.5,1.5-2.8,1.4c-1-0.1-1.9,0-2.9,0c-0.6,0-0.8,0.1-0.7,0.7c0,1.4,0,2.8,0,4.1c0,0.6,0.2,0.7,0.7,0.7c4,0,8,0,12,0
		c0.6,0,1.3,0,1.9,0c0.8,0,1.3,0.4,1.4,1.2c0,0.7-0.5,1.2-1.4,1.2c-3.9,0-7.7,0-11.6,0c-2.4,0-4.7,0-7.1,0c-0.5,0-0.7,0.1-0.7,0.7
		c0,11.5,0,22.9,0,34.4c0,0.6,0.2,0.8,0.8,0.8c9.8,0,19.6,0,29.4,0c0.8,0,0.8,0,0.8-0.8c0-4.9,0-9.8,0-14.7c0-0.3,0-0.7,0-1
		c0-0.8,0.5-1.3,1.2-1.3c0.7,0,1.2,0.5,1.2,1.3c0,2.3,0,4.6,0,6.9c0,3.4,0,6.9,0,10.3c0,1.3-0.4,1.7-1.7,1.7c-10.9,0-21.7,0-32.6,0
		c-1.2,0-1.6-0.4-1.6-1.6c0-12.4,0-24.9,0-37.3c0-1.3,0.4-1.7,1.7-1.7c0.9,0,1.8,0,2.7,0c0.3,0,0.5-0.1,0.5-0.5c0-0.4,0-0.8,0-1.2
		c0-0.5-0.2-0.7-0.7-0.7c-1.6,0-3.2,0-4.8,0c-0.6,0-1.2,0-1.8,0c-0.5,0-0.7,0.2-0.7,0.7c0,4,0,8,0,12c0,11,0,22,0,33.1
		c0,0.3,0,0.5,0,0.8c0,0.2,0.1,0.4,0.4,0.4c0.2,0,0.4,0,0.5,0c12.7,0,25.4,0,38,0c2.2,0,3.5-1.4,3.5-3.6c0-7.2,0-14.3,0-21.5
		c0-1.1,0.4-1.6,1.2-1.7c0.8,0,1.2,0.6,1.2,1.7c0,7.1,0,14.3,0,21.4c0,3.6-2.5,6.1-6.1,6.1c-13.1,0-26.3,0-39.4,0
		c-1.4,0-1.8-0.3-1.8-1.8C-281.3,418.8-281.3,410.8-281.3,402.7z"/>
	<path d="M-253.7,413.6c-2.1,0-4.3,0-6.4,0c-0.7,0-1.2-0.3-1.3-0.9c-0.2-0.8,0.4-1.4,1.3-1.5c1.9,0,3.8,0,5.7,0c2.4,0,4.8,0,7.2,0
		c0.6,0,1.1,0.2,1.3,0.7c0.4,0.8-0.2,1.6-1.2,1.7c-2,0-4.1,0-6.1,0C-253.4,413.6-253.6,413.6-253.7,413.6z"/>
	<path d="M-253.7,408.4c-2.1,0-4.2,0-6.3,0c-1,0-1.5-0.4-1.5-1.2c0-0.7,0.6-1.2,1.5-1.2c4.3,0,8.5,0,12.8,0c0.9,0,1.4,0.5,1.4,1.3
		c-0.1,0.7-0.5,1.1-1.3,1.1C-249.4,408.4-251.5,408.4-253.7,408.4z"/>
	<path d="M-262.9,394c0,0.4-0.1,0.6-0.3,0.9c-1.4,1.7-2.7,3.4-4.1,5.1c-0.5,0.7-1.4,0.6-1.9-0.1c-0.5-0.7-0.9-1.4-1.4-2.1
		c-0.4-0.6-0.2-1.3,0.3-1.7c0.5-0.4,1.1-0.2,1.6,0.3c0.6,0.7,0.6,0.7,1.2,0c0.8-1,1.6-2,2.4-3c0.4-0.5,0.9-0.6,1.4-0.4
		C-263.1,393.1-263,393.6-262.9,394z"/>
	<path d="M-268.3,408c-0.5,0-0.8-0.2-1.1-0.6c-0.5-0.7-0.9-1.4-1.4-2.1c-0.4-0.6-0.2-1.3,0.3-1.7c0.5-0.4,1.2-0.2,1.6,0.3
		c0.6,0.7,0.6,0.7,1.1,0c0.8-1,1.6-2,2.5-3c0.4-0.4,0.8-0.6,1.4-0.5c0.5,0.1,0.7,0.5,0.8,1c0.1,0.3,0,0.6-0.2,0.9
		c-1.4,1.8-2.8,3.5-4.2,5.2C-267.6,407.9-267.9,408-268.3,408z"/>
	<path d="M-268.3,415.5c-0.4,0-0.8-0.2-1-0.6c-0.5-0.7-0.9-1.4-1.4-2.1c-0.4-0.6-0.2-1.3,0.3-1.7c0.5-0.4,1.2-0.2,1.6,0.3
		c0.1,0.1,0.1,0.2,0.2,0.3c0.2,0.4,0.4,0.4,0.7,0c0.9-1.1,1.8-2.2,2.6-3.3c0.3-0.3,0.5-0.6,1-0.6c0.5,0,0.9,0.1,1.2,0.5
		c0.3,0.5,0.3,1-0.1,1.4c-0.5,0.7-1.1,1.4-1.7,2.1c-0.8,1-1.7,2.1-2.5,3.1C-267.5,415.3-267.8,415.5-268.3,415.5z"/>
	<path d="M-240.3,379.4c0.8,0,1.7,0,2.5,0c1,0,1.5,0.7,1.2,1.7c-0.7,2.3-1.4,4.5-2.1,6.8c-0.3,0.9-0.7,1.1-1.7,1.1
		c-1,0-1.3-0.2-1.6-1.1c-0.7-2.2-1.4-4.4-2.1-6.5c-0.4-1.3,0.1-1.9,1.4-1.9C-241.9,379.4-241.1,379.4-240.3,379.4
		C-240.3,379.4-240.3,379.4-240.3,379.4z M-240.6,384.6c0.1,0,0.1,0,0.2,0c0.2-0.5,0.3-1,0.5-1.4c0.4-1.4,0.4-1.5-1.1-1.3
		c0,0-0.1,0-0.1,0c-0.2,0-0.2,0.1-0.2,0.3C-241,383-240.8,383.8-240.6,384.6z"/>
	<path d="M-240.4,389.7c1.3,0,2.5,1.2,2.5,2.5c0,1.3-1.2,2.4-2.5,2.4c-1.4,0-2.6-1.2-2.5-2.5C-242.9,390.7-241.8,389.6-240.4,389.7z
		"/>
</g>
</svg>
