<?xml version="1.0" encoding="utf-8"?>
<!-- Generator: Adobe Illustrator 19.0.0, SVG Export Plug-In . SVG Version: 6.00 Build 0)  -->
<svg version="1.1" id="Layer_1" xmlns="http://www.w3.org/2000/svg" xmlns:xlink="http://www.w3.org/1999/xlink" x="0px" y="0px"
	 viewBox="-271 374 38.8 49.2" style="enable-background:new -271 374 38.8 49.2;" xml:space="preserve">
<style type="text/css">
	.st0{fill:#4A7EBA;}
</style>
<g>
	<path d="M-232.3,409.1c0,0.1,0,0.2,0,0.3c-0.2,0.1-0.1,0.3-0.1,0.5c0,4.4,0,8.8,0,13.2c-0.1,0-0.3,0-0.4,0c-12.6,0-25.1,0-37.7,0
		c-0.1,0-0.3,0-0.4,0c0,0-0.1-0.1-0.1-0.1c0-4.4,0-8.7,0-13.1c0.3-0.3,0.2-0.7,0.1-1.1c0-0.1,0-0.1,0-0.2c0.3-0.3,0.3-0.6,0.2-1
		c0.4-2.2,1.4-4.1,2.8-5.7c2.1-2.4,4.7-3.9,7.8-4.4c0.3-0.1,0.7-0.1,1-0.1c0.4,0,0.8,0,1.1,0.2c3.8,1.9,7.6,1.9,11.3-0.1
		c0.1-0.1,0.3-0.2,0.5-0.2c3.4-0.1,6.5,0.7,9.1,2.9c2.3,1.8,3.7,4.2,4.4,7c0,0.1,0,0.1,0,0.2c-0.1,0.3-0.1,0.6,0.2,0.8
		c0,0.1,0,0.1,0,0.2C-232.5,408.7-232.6,409-232.3,409.1z"/>
	<path d="M-263.1,386.2c0.1-2,0.8-3.9,2.1-5.5c2.4-3.1,5.5-4.5,9.4-4.2c5.1,0.3,9.3,4.4,9.8,9.4c0.6,5.8-3.2,10.8-8.9,11.8
		c-5.2,0.9-10.6-2.5-12-7.5c0-0.1,0-0.1,0-0.2c1.1,1,2.3,1.8,3.6,2.3c1.1,0.4,2.2,0.6,3.3,0.4c0.3,0,0.3,0.1,0.4,0.3
		c0.5,0.7,1.3,1,2.1,0.8c0.8-0.2,1.3-0.9,1.3-1.7c0-0.8-0.5-1.5-1.2-1.8c-1-0.4-2.1,0.2-2.4,1.3c-0.1,0.4-0.2,0.4-0.6,0.4
		c-2.1,0.1-3.9-0.7-5.5-2c-0.5-0.4-0.9-0.8-1.3-1.3c-0.1-0.1-0.2-0.2-0.2-0.4C-262.9,387.5-262.9,386.8-263.1,386.2z"/>
	<path d="M-240.7,385.2c-0.2-0.8-0.4-1.6-0.5-2.4c-0.2-1.2-0.8-2.2-1.5-3.2c-2-2.6-4.8-4-8-4.4c-3.2-0.4-6.2,0.2-8.9,2
		c-2.2,1.5-3.6,3.5-4.2,6c-0.1,0.2,0.1,0.6-0.2,0.7c-0.3-0.2-0.7,0.1-0.9-0.2c-0.2-0.3,0.1-0.7,0.1-1c0-0.2-0.1-0.2-0.3-0.2
		c-0.2,0-0.5,0.1-0.7-0.1c0,0,0,0,0,0c0.9,0.2,1.1-0.3,1.4-1.1c1.3-3.2,3.7-5.3,6.9-6.5c4.9-1.7,9.5-1.2,13.6,1.9
		c1.8,1.3,3,3,3.7,5.1c0.1,0.3,0.2,0.3,0.5,0.3c0.3,0,0.5,0,0.8,0.1c-0.2,0.2-0.5,0.1-0.7,0.1c-0.2,0-0.4,0-0.3,0.3
		c0.1,0.5,0.2,1.1,0.2,1.7c0,0.3-0.1,0.5-0.5,0.5C-240.5,384.9-240.6,385-240.7,385.2z"/>
	<path d="M-265.9,382.5c0.2,0.2,0.5,0.1,0.7,0.1c0.2,0,0.3,0,0.3,0.2c0,0.3-0.3,0.7-0.1,1c0.2,0.3,0.6,0,0.9,0.2c0,0.2,0,0.4,0,0.5
		c-0.1,0.1-0.1,0.1,0,0.2c-0.2,1.4-0.3,2.8-0.1,4.3c-0.1,0.2-0.2,0.3-0.5,0.3c-0.5,0-1-0.1-1.4,0.1c-1-0.1-1.7-0.8-1.7-1.8
		c0-1.1,0-2.1,0-3.2C-267.8,383.2-267,382.5-265.9,382.5z"/>
	<path d="M-240.7,385.2c0.1-0.2,0.2-0.3,0.4-0.3c0.4,0.1,0.5-0.1,0.5-0.5c0-0.6-0.1-1.1-0.2-1.7c-0.1-0.3,0-0.3,0.3-0.3
		c0.2,0,0.5,0.1,0.7-0.1c0.1,0,0.1,0,0.2,0c0.1,0.2,0.2,0.1,0.4,0.2c0.3,0.1,0.5,0.3,0.6,0.5c0,0,0.1,0.1,0.1,0.1
		c0.1,0,0.1,0.1,0.1,0.2c0,0.1,0,0.2,0.1,0.2c0,0.1,0.1,0.1,0.1,0.2c0.1,1.3,0.2,2.7,0,4c-0.1,0.9-0.9,1.5-1.8,1.5
		c-0.4,0-0.8,0-1.2,0c-0.2,0-0.3,0-0.3-0.3C-240.5,387.8-240.5,386.5-240.7,385.2z"/>
	<path class="st0" d="M-232.4,423.2c0-4.4,0-8.8,0-13.2c0-0.2-0.1-0.4,0.1-0.5c0,0.3,0.1,0.5,0.1,0.8c0,4.2,0,8.3,0,12.5
		C-232.3,422.9-232.1,423.1-232.4,423.2z"/>
	<path d="M-266.1,389.4c0.5-0.2,0.9-0.1,1.4-0.1c0.2,0,0.4-0.1,0.5-0.3c0.1,0.3,0.1,0.4-0.3,0.4C-265,389.4-265.5,389.4-266.1,389.4
		z"/>
	<path d="M-270.9,408.9c0.1,0.4,0.2,0.7-0.1,1.1C-271,409.6-271,409.2-270.9,408.9z"/>
	<path d="M-263.1,386.2c0.1,0.6,0.1,1.3,0,1.9C-263.2,387.5-263.2,386.8-263.1,386.2z"/>
	<path d="M-270.7,407.7c0.1,0.4,0.1,0.7-0.2,1C-270.9,408.3-270.8,408-270.7,407.7z"/>
	<path class="st0" d="M-232.4,408.3c-0.3-0.2-0.3-0.5-0.2-0.8C-232.5,407.8-232.5,408-232.4,408.3z"/>
	<path class="st0" d="M-232.3,409.1c-0.3-0.2-0.2-0.4-0.1-0.6C-232.3,408.7-232.3,408.9-232.3,409.1z"/>
	<path d="M-238.4,382.6c-0.1,0-0.3,0.1-0.4-0.2C-238.6,382.4-238.5,382.4-238.4,382.6z"/>
	<path d="M-264.1,384.7c-0.1-0.1-0.1-0.1,0-0.2C-264,384.6-264,384.7-264.1,384.7z"/>
	<path d="M-237.5,383.6c-0.1,0-0.1-0.1-0.1-0.2C-237.5,383.4-237.5,383.5-237.5,383.6z"/>
	<path d="M-237.7,383.2c0,0-0.1-0.1-0.1-0.1C-237.7,383.1-237.7,383.2-237.7,383.2z"/>
	<path d="M-271,423.1C-271,423.1-270.9,423.1-271,423.1C-271,423.2-271,423.1-271,423.1z"/>
</g>
</svg>
