<?xml version="1.0" encoding="UTF-8"?>
<svg width="17px" height="17px" viewBox="0 0 17 17" version="1.1" xmlns="http://www.w3.org/2000/svg" xmlns:xlink="http://www.w3.org/1999/xlink">
    <title>social-1_logo-facebook</title>
    <g id="Page-1" stroke="none" stroke-width="1" fill="none" fill-rule="evenodd">
        <g id="Home" transform="translate(-120.000000, -7302.000000)" fill="#FFFFFF" fill-rule="nonzero">
            <g id="Group-39" transform="translate(0.000000, 7166.000000)">
                <g id="Group-33" transform="translate(120.000000, 136.000000)">
                    <g id="Group-44">
                        <g id="social-1_logo-facebook">
                            <path d="M16.309375,0 L0.690625,0 C0.31875,0 0,0.31875 0,0.690625 L0,16.25625 C0,16.68125 0.31875,17 0.690625,17 L9.03125,17 L9.03125,10.625 L6.90625,10.625 L6.90625,7.96875 L9.03125,7.96875 L9.03125,5.84375 C9.03125,3.665625 10.4125,2.55 12.378125,2.55 C13.334375,2.55 14.13125,2.65625 14.34375,2.65625 L14.34375,4.940625 L12.9625,4.940625 C11.9,4.940625 11.634375,5.471875 11.634375,6.215625 L11.634375,7.96875 L14.290625,7.96875 L13.759375,10.625 L11.634375,10.625 L11.6875,17 L16.25625,17 C16.628125,17 16.946875,16.68125 16.946875,16.309375 L16.946875,0.690625 C17,0.31875 16.68125,0 16.309375,0 Z" id="White_2_"></path>
                        </g>
                    </g>
                </g>
            </g>
        </g>
    </g>
</svg>