<?xml version="1.0" encoding="UTF-8"?>
<svg width="48px" height="48px" viewBox="0 0 48 48" version="1.1" xmlns="http://www.w3.org/2000/svg" xmlns:xlink="http://www.w3.org/1999/xlink">
    <title>Group 11</title>
    <g id="Page-1" stroke="none" stroke-width="1" fill="none" fill-rule="evenodd">
        <g id="About-us" transform="translate(-552.000000, -1392.000000)">
            <g id="Group-10" transform="translate(120.000000, 1232.000000)">
                <g id="Group-13" transform="translate(15.000000, 160.000000)">
                    <g id="Group-12-Copy" transform="translate(417.000000, 0.000000)">
                        <g id="Group-11">
                            <rect id="Rectangle" fill="#7FCE81" x="0" y="0" width="48" height="48" rx="10"></rect>
                            <g id="business" transform="translate(12.000000, 12.000000)" fill="#FFFFFF" fill-rule="nonzero">
                                <path d="M23.9276028,3.57038298 C23.8872512,3.43110517 23.7741242,3.32493982 23.6325674,3.29350355 L21.1985248,2.74360284 L20.6486241,0.309560284 C20.6167975,0.16838417 20.5106597,0.05571738 20.3716324,0.015529806 C20.2326051,-0.0246577679 20.0827239,0.0140035221 19.9804823,0.116425532 L17.1810496,2.91631206 C12.2786675,-0.0419144794 5.93956806,1.12371068 2.41018492,5.63235897 C-1.11919821,10.1410073 -0.728745995,16.5745453 3.31998558,20.6232768 C7.36871716,24.6720084 13.8022551,25.0624606 18.3109034,21.5330775 C22.8195517,18.0036944 23.9851769,11.6645949 21.0269504,6.76221277 L23.8275177,3.96164539 C23.9296045,3.8591612 23.9679393,3.70929911 23.9276028,3.57038298 L23.9276028,3.57038298 Z M21.8609985,12.6154894 C21.8603351,17.3828151 18.6573807,21.5551906 14.0521551,22.7877864 C9.44692954,24.0203823 4.58802019,22.0057773 2.20608085,17.8761575 C-0.175858491,13.7465376 0.51325074,8.53186965 3.88613671,5.16273986 C7.25902268,1.79361006 12.4744552,1.11031174 16.6014184,3.49685106 L15.3157447,4.78252482 C15.3046987,4.79509937 15.2944652,4.80836502 15.2851064,4.82224113 C11.4500809,2.86979438 6.76469742,3.99504107 4.23459877,7.4761428 C1.70450012,10.9572445 2.08050993,15.7611612 5.12142038,18.8062116 C8.16233082,21.8512621 12.9657315,22.2338073 16.4502722,19.708447 C19.9348129,17.1830868 21.0664331,12.4992385 19.1192057,8.66156028 C19.1338049,8.65124913 19.1476813,8.63995086 19.1607376,8.62774468 L20.4464113,7.34207092 C21.3748588,8.94431948 21.8628968,10.7636763 21.8609985,12.6154894 L21.8609985,12.6154894 Z M18.1766809,8.59529078 C20.1945409,12.0399939 19.338924,16.447511 16.1787802,18.8870252 C13.0186364,21.3265395 8.53809771,21.0383372 5.71653739,18.214061 C2.89497707,15.3897848 2.61108554,10.9089709 5.05363894,7.75117559 C7.49619234,4.59338023 11.9045306,3.74200416 15.3472908,5.7631773 L15.7655603,7.616 L15.3643121,8.01724823 C12.8768703,5.83294276 9.10496982,6.01639111 6.8412362,8.43177247 C4.57750259,10.8471538 4.63867343,14.6230172 6.97945931,16.9638031 C9.32024518,19.304589 13.0961086,19.3657598 15.5114899,17.1020262 C17.9268713,14.8382926 18.1103197,11.0663921 15.9260142,8.57895035 L16.3272624,8.17770213 L18.1766809,8.59529078 Z M13.0355863,12.6154894 C13.038461,13.3963687 12.5132182,14.0805077 11.7580953,14.2794307 C11.0029724,14.4783538 10.2088416,14.1417792 9.82663525,13.4608246 C9.44442886,12.7798699 9.57075705,11.9266599 10.1338867,11.3856738 C10.6970163,10.8446878 11.5546054,10.7526705 12.2196879,11.1618723 L11.0468085,12.3347518 C10.9435837,12.4344902 10.902207,12.5821651 10.9385817,12.7210175 C10.9749563,12.85987 11.0834215,12.9682913 11.2222887,13.0046099 C11.3611558,13.0409284 11.5088139,12.9994921 11.6085106,12.896227 L12.7813901,11.7233475 C12.9474464,11.9912984 13.0354729,12.3002555 13.0355863,12.6154894 L13.0355863,12.6154894 Z M12.7913759,10.5901844 C11.7302203,9.82155007 10.2565289,9.99751714 9.4061855,10.9943952 C8.55584205,11.9912733 8.6144209,13.4742767 9.54074592,14.4009762 C10.4670709,15.3276756 11.9500506,15.3868538 12.9472722,14.5369133 C13.9444939,13.6869728 14.1210565,12.2133527 13.3528511,11.1518865 L15.3631773,9.14156028 C17.2352023,11.3164225 17.0518867,14.5823883 14.9482411,16.5340999 C12.8445954,18.4858115 9.57406866,18.4242373 7.54537753,16.3947261 C5.51668639,14.365215 5.45643386,11.0946636 7.40899546,8.99180687 C9.36155705,6.88895014 12.6275966,6.70695444 14.8017021,8.57985816 L12.7913759,10.5901844 Z M20.2453333,6.41974468 L18.7547234,7.91012766 L18.5311773,7.85974468 L18.5225532,7.85770213 L16.5333333,7.40992908 L16.032,5.18967376 L20.0335887,1.18740426 L20.48,3.16323404 C20.5137821,3.31273411 20.6305283,3.42948029 20.7800284,3.46326241 L22.7558582,3.90967376 L20.2453333,6.41974468 Z" id="Shape"></path>
                            </g>
                        </g>
                    </g>
                </g>
            </g>
        </g>
    </g>
</svg>