<?xml version="1.0" encoding="UTF-8"?>
<svg width="48px" height="48px" viewBox="0 0 48 48" version="1.1" xmlns="http://www.w3.org/2000/svg" xmlns:xlink="http://www.w3.org/1999/xlink">
    <title>Group 11</title>
    <g id="Page-1" stroke="none" stroke-width="1" fill="none" fill-rule="evenodd">
        <g id="About-us" transform="translate(-969.000000, -1392.000000)">
            <g id="Group-10" transform="translate(120.000000, 1232.000000)">
                <g id="Group-13" transform="translate(15.000000, 160.000000)">
                    <g id="Group-12-Copy-2" transform="translate(834.000000, 0.000000)">
                        <g id="Group-11">
                            <rect id="Rectangle" fill="#FF773F" x="0" y="0" width="48" height="48" rx="10"></rect>
                            <g id="badge" transform="translate(12.000000, 13.000000)" fill="#FFFFFF" fill-rule="nonzero">
                                <path d="M23.9068311,15.0197573 C23.7406379,14.4140625 23.2327609,13.9633264 22.6115702,13.8701576 L22.6115702,4.76536671 L23.4049587,4.76536671 C23.6240315,4.76536671 23.8016529,4.58774534 23.8016529,4.3686725 L23.8016529,0.401730347 C23.8016529,0.182463868 23.6240315,0.00503613223 23.4049587,0.00503613223 L5.95041322,0.00503613223 C5.73134038,0.00503613223 5.55371901,0.182463868 5.55371901,0.401730347 L5.55371901,4.3686725 C5.55371901,4.58774534 5.73134038,4.76536671 5.95041322,4.76536671 L6.74380165,4.76536671 L6.74380165,12.699251 L6.34710744,12.699251 C5.36253873,12.6969267 4.39811464,12.9791452 3.57024793,13.5120093 L3.57024793,11.5091684 C3.57024793,11.2899019 3.39262656,11.1124741 3.17355372,11.1124741 L0.396694215,11.1124741 C0.177621372,11.1124741 0,11.2899019 0,11.5091684 L0,20.6331353 C0,20.8522081 0.177621372,21.0298295 0.396694215,21.0298295 L3.17355372,21.0298295 C3.39262656,21.0298295 3.57024793,20.8522081 3.57024793,20.6331353 L3.57024793,18.6304881 C4.39830838,19.1629649 5.36253873,19.4451834 6.34710744,19.4430527 L12.8607955,19.4430527 C13.3121126,19.4422779 13.7612991,19.3830062 14.197314,19.2667872 L22.7860924,16.9660382 C23.6311983,16.7357309 24.1319086,15.8664127 23.9068311,15.0197573 Z M6.34710744,0.798424562 L23.0082645,0.798424562 L23.0082645,3.97197828 L6.34710744,3.97197828 L6.34710744,0.798424562 Z M7.53719008,4.76536671 L21.8181818,4.76536671 L21.8181818,13.9383394 L17.2141658,15.1729726 C17.0245351,14.7208807 16.6377195,14.3813275 16.1649019,14.2517433 L10.819796,12.8181818 C10.5187887,12.7389592 10.2088714,12.6988636 9.89759812,12.699251 L7.53719008,12.699251 L7.53719008,4.76536671 Z M2.7768595,20.2364411 L0.79338843,20.2364411 L0.79338843,11.9058626 L2.7768595,11.9058626 L2.7768595,20.2364411 Z M22.5801911,16.1995739 L13.9929623,18.5003228 C13.6235796,18.5989153 13.243156,18.6490832 12.8607955,18.6496753 L6.34710744,18.6496753 C5.4026343,18.6517949 4.48314823,18.3453642 3.72888689,17.7768595 L3.57024793,17.6579287 L3.57024793,14.484375 L3.72888689,14.3652505 C4.48314823,13.7967459 5.4026343,13.4901214 6.34710744,13.4926241 L9.89759812,13.4926241 C10.1399148,13.4924458 10.3814566,13.5238249 10.6160253,13.5858084 L15.9593879,15.0182077 C16.2751162,15.1051782 16.5061983,15.3757748 16.5422262,15.7013817 C16.5464876,15.7176524 16.5517175,15.7337293 16.5581095,15.7494189 C16.5534607,15.7664643 16.5499741,15.7837035 16.5476498,15.80133 C16.5480372,15.8658316 16.5393208,15.9301394 16.5215005,15.9921229 C16.4281379,16.3378745 16.1149277,16.5782541 15.7567795,16.5788352 C15.6868543,16.5794163 15.6175103,16.5705062 15.5501033,16.552686 L12.1782025,15.6485021 C12.0399019,15.607438 11.890173,15.6446281 11.7871255,15.7457386 C11.6842717,15.8468492 11.6441761,15.9958032 11.6827221,16.1348786 C11.7212681,16.2737603 11.8322573,16.3810692 11.9726885,16.414579 L15.3445894,17.3191503 C15.4792097,17.3545971 15.6180914,17.3724174 15.7575542,17.3722237 C16.4707515,17.3718362 17.0958161,16.8947573 17.2842846,16.2067407 C17.3063662,16.1271307 17.321281,16.0457774 17.3292226,15.9636493 L22.1652893,14.6668388 C22.1997675,14.6581224 22.2371514,14.6492123 22.2724044,14.6434014 C22.6673554,14.5924587 23.0386751,14.8421358 23.1407541,15.2268208 C23.1585744,15.2938404 23.1674845,15.3629907 23.1669301,15.4323347 C23.1674845,15.7914515 22.9269112,16.1060176 22.5801911,16.1995739 Z" id="Shape"></path>
                                <path d="M12.6942149,6.35214357 L16.661157,6.35214357 C16.8802299,6.35214357 17.0578512,6.1745222 17.0578512,5.95544936 C17.0578512,5.73618288 16.8802299,5.55875514 16.661157,5.55875514 L12.6942149,5.55875514 C12.475142,5.55875514 12.2975207,5.73618288 12.2975207,5.95544936 C12.2975207,6.1745222 12.475142,6.35214357 12.6942149,6.35214357 Z" id="Path"></path>
                            </g>
                        </g>
                    </g>
                </g>
            </g>
        </g>
    </g>
</svg>