<?xml version="1.0" encoding="UTF-8"?>
<svg width="48px" height="48px" viewBox="0 0 48 48" version="1.1" xmlns="http://www.w3.org/2000/svg" xmlns:xlink="http://www.w3.org/1999/xlink">
    <title>Group 11</title>
    <g id="Page-1" stroke="none" stroke-width="1" fill="none" fill-rule="evenodd">
        <g id="About-us" transform="translate(-135.000000, -1392.000000)">
            <g id="Group-10" transform="translate(120.000000, 1232.000000)">
                <g id="Group-13" transform="translate(15.000000, 160.000000)">
                    <g id="Group-12">
                        <g id="Group-11">
                            <rect id="Rectangle" fill="#0E71F0" x="0" y="0" width="48" height="48" rx="10"></rect>
                            <g id="tools-and-utensils" transform="translate(12.000000, 12.000000)" fill="#FFFFFF" fill-rule="nonzero">
                                <path d="M8.87791772,4.18834461 C9.60672601,4.18834461 10.1996314,3.59520885 10.1996314,2.86640049 C10.1996314,2.13759214 9.60672601,1.54445637 8.87791772,1.54445637 C8.14910931,1.54445637 7.55620393,2.13759214 7.55620393,2.86640049 C7.55620393,3.59520885 8.14910931,4.18834461 8.87791772,4.18834461 Z M8.87791772,2.34973893 C9.16285321,2.34973893 9.39434889,2.581465 9.39434889,2.86640049 C9.39434889,3.15156631 9.16285321,3.38329238 8.87791772,3.38329238 C8.59298217,3.38329238 8.36125616,3.15156631 8.36125616,2.86640049 C8.36125616,2.581465 8.59298217,2.34973893 8.87791772,2.34973893 Z" id="Shape"></path>
                                <path d="M14.1111026,19.2569871 C13.3822942,19.2569871 12.7893888,19.8501229 12.7893888,20.5789312 C12.7893888,21.3077396 13.3822942,21.9008753 14.1111026,21.9008753 C14.8399109,21.9008753 15.4328164,21.3077396 15.4328164,20.5789312 C15.4328164,19.8501229 14.8399109,19.2569871 14.1111026,19.2569871 L14.1111026,19.2569871 Z M14.1111026,21.0955928 C13.8261671,21.0955928 13.594441,20.8638667 13.594441,20.5789312 C13.594441,20.2937654 13.8261671,20.0620393 14.1111026,20.0620393 C14.3960381,20.0620393 14.6277641,20.2937654 14.6277641,20.5789312 C14.6277641,20.8638667 14.3960381,21.0955928 14.1111026,21.0955928 Z" id="Shape"></path>
                                <path d="M4.26735261,1.65870699 C4.26735261,2.00261059 3.98863636,2.28132678 3.64473282,2.28132678 C3.30082921,2.28132678 3.02211302,2.00261059 3.02211302,1.65870699 C3.02211302,1.31480344 3.30082921,1.03608719 3.64473282,1.03608719 C3.98863636,1.03608719 4.26735261,1.31480344 4.26735261,1.65870699 Z" id="Path"></path>
                                <path d="M21.1746008,20.1762899 C21.1746008,20.5201935 20.8958845,20.7989097 20.551981,20.7989097 C20.2080774,20.7989097 19.9293612,20.5201935 19.9293612,20.1762899 C19.9293612,19.8323864 20.2080774,19.5536701 20.551981,19.5536701 C20.8958845,19.5536701 21.1746008,19.8323864 21.1746008,20.1762899 L21.1746008,20.1762899 Z" id="Path"></path>
                                <path d="M22.7559122,13.3431358 C22.5985872,13.1858108 22.3438268,13.1858108 22.1867322,13.3431358 L21.7596744,13.7699631 L21.332847,13.3431358 C21.1757525,13.1858108 20.9207617,13.1858108 20.7636671,13.3431358 C20.6063422,13.5002303 20.6063422,13.7552211 20.7636671,13.9123158 L21.1904945,14.3391431 L20.7636671,14.7662008 C20.6063422,14.9232955 20.6063422,15.1780559 20.7636671,15.3353808 C20.8422144,15.4139281 20.9451781,15.453317 21.0481419,15.453317 C21.1511057,15.453317 21.2542998,15.4139281 21.332847,15.3353808 L21.7596744,14.9083231 L22.1867322,15.3353808 C22.2652795,15.4139281 22.3682432,15.453317 22.471207,15.453317 C22.5741707,15.453317 22.6773648,15.4139281 22.7559122,15.3353808 C22.9130067,15.1780559 22.9130067,14.9232955 22.7559122,14.7662008 L22.3288544,14.3391431 L22.7559122,13.9123158 C22.9130067,13.7552211 22.9130067,13.5002303 22.7559122,13.3431358 Z" id="Path"></path>
                                <path d="M1.44080161,10.9072482 C1.51957922,10.9860258 1.622543,11.0251843 1.72550677,11.0251843 C1.82847049,11.0251843 1.93143426,10.9860258 2.0099816,10.9072482 L2.43703931,10.4804208 L2.86386669,10.9072482 C2.94241403,10.9860258 3.04560814,11.0251843 3.14857185,11.0251843 C3.25153563,11.0251843 3.3544994,10.9860258 3.43304668,10.9072482 C3.59037164,10.7501536 3.59037164,10.4953931 3.43304668,10.3380682 L3.0062193,9.91124079 L3.43304668,9.48441341 C3.59037164,9.32708845 3.59037164,9.07232798 3.43304668,8.91500309 C3.27595212,8.75790846 3.02119165,8.75790846 2.86386669,8.91500309 L2.43703931,9.3420608 L2.0099816,8.91500309 C1.85288698,8.75790846 1.59812651,8.75790846 1.44080161,8.91500309 C1.28370699,9.07232798 1.28370699,9.32708845 1.44080161,9.48441341 L1.86785932,9.91124079 L1.44080161,10.3380682 C1.28347666,10.4953931 1.28347666,10.7499232 1.44080161,10.9072482 Z" id="Path"></path>
                                <path d="M23.8735412,4.7586763 L19.2279638,0.113329238 C19.0770885,-0.0377764128 18.8096591,-0.0377764128 18.6587838,0.113329238 L12.2068489,6.56526416 C12.049524,6.72235872 12.049524,6.97734952 12.2068489,7.13444409 L12.6965602,7.62415542 L8.07747237,12.2430129 C8.00191955,12.3185657 7.95953626,12.4210688 7.95953626,12.5277181 C7.95953626,12.6343673 8.00191955,12.7368704 8.07747237,12.8124232 L8.30896806,13.0439189 L1.88352271,19.4695946 L0.883829838,20.4692875 L0.708768413,20.294226 C0.551673848,20.1371315 0.296913376,20.1371315 0.139588482,20.294226 C-0.0175061425,20.4513206 -0.0175061425,20.7063114 0.139588482,20.863406 L0.569640649,21.2934582 C0.578624079,21.3047451 0.582770241,21.3185657 0.593366093,21.3291615 L2.6579392,23.3937346 C2.668535,23.4043305 2.68281635,23.408707 2.69433352,23.4179207 L3.26074939,23.9843366 C3.33929667,24.0631142 3.44249077,24.1025031 3.54522422,24.1025031 C3.64818799,24.1025031 3.75138209,24.0631142 3.82992938,23.9843366 C3.98702394,23.827242 3.98702394,23.5724816 3.82992938,23.4151566 L3.51781327,23.1030405 L4.51750614,22.1033477 L10.9431818,15.6779023 L11.1746775,15.909398 C11.2532248,15.9879453 11.3564189,16.0273342 11.4591523,16.0273342 C11.5621161,16.0273342 11.6653102,15.9879453 11.7438575,15.909398 L16.3629453,11.2905405 L16.8524263,11.7800215 C16.9309736,11.8585688 17.0339374,11.8979576 17.1369011,11.8979576 C17.2398649,11.8979576 17.343059,11.8585688 17.4216063,11.7800215 L22.5833845,6.61824324 L23.8735412,5.32785624 C24.0308661,5.17076167 24.0308661,4.91600126 23.8735412,4.7586763 Z M1.45324016,21.0384675 L2.16822787,20.3234797 L3.66362099,21.8188729 L2.94863328,22.5338606 L1.45324016,21.0384675 Z M4.23280098,21.2494625 L2.73740786,19.7540694 L8.87837838,13.6130989 L10.3737715,15.108492 L4.23280098,21.2494625 Z M11.4591523,15.0555129 L8.93135752,12.5277181 L13.2657402,8.19356574 L15.793535,10.7213606 L11.4591523,15.0555129 Z M17.1369011,10.9261363 L16.6481112,10.4371161 C16.6478808,10.4368858 16.6478808,10.4366554 16.6476505,10.4366554 C16.6474201,10.4364251 16.6471898,10.4364251 16.6469595,10.4361947 L13.550906,7.34014125 C13.5506757,7.33991092 13.5506757,7.33968059 13.5504453,7.33945026 C13.5504453,7.33921993 13.550215,7.33921993 13.5499846,7.33898954 L13.060734,6.84996926 L17.653102,2.25737101 L21.7294994,6.33376841 L17.1369011,10.9261363 Z M22.2986794,5.76458842 L18.2222819,1.68819102 L18.9432586,0.966984059 L23.019656,5.04338146 L22.2986794,5.76458842 Z" id="Shape"></path>
                            </g>
                        </g>
                    </g>
                </g>
            </g>
        </g>
    </g>
</svg>