<?xml version="1.0" encoding="UTF-8"?>
<svg width="32px" height="32px" viewBox="0 0 32 32" version="1.1" xmlns="http://www.w3.org/2000/svg" xmlns:xlink="http://www.w3.org/1999/xlink">
    <title>search (1)</title>
    <g id="Page-1" stroke="none" stroke-width="1" fill="none" fill-rule="evenodd">
        <g id="Home" transform="translate(-1180.000000, -1969.000000)" fill="#FFFFFF" fill-rule="nonzero">
            <g id="Group-17-Copy" transform="translate(0.000000, 1737.000000)">
                <g id="Screenshot-2020-04-19-at-3.05.06-PM">
                    <g id="Group-36" transform="translate(204.000000, 208.000000)">
                        <g id="Group-46" transform="translate(952.000000, 0.000000)">
                            <g id="search-(1)" transform="translate(24.000000, 24.000000)">
                                <path d="M14.092125,0 C6.3219375,0 0,6.3219375 0,14.092125 C0,21.86275 6.3219375,28.18425 14.092125,28.18425 C21.86275,28.18425 28.18425,21.86275 28.18425,14.092125 C28.18425,6.3219375 21.86275,0 14.092125,0 Z M14.092125,25.5826875 C7.7563125,25.5826875 2.601625,20.428 2.601625,14.0921875 C2.601625,7.756375 7.7563125,2.601625 14.092125,2.601625 C20.4279375,2.601625 25.582625,7.7563125 25.582625,14.092125 C25.582625,20.4279375 20.4279375,25.5826875 14.092125,25.5826875 Z" id="Shape"></path>
                                <path d="M31.618875,29.7795 L24.160875,22.3215 C23.6526875,21.8133125 22.8296875,21.8133125 22.3215,22.3215 C21.8133125,22.82925 21.8133125,23.653125 22.3215,24.160875 L29.7795,31.618875 C30.0335625,31.8729375 30.3661875,32 30.6991875,32 C31.03175,32 31.36475,31.8729375 31.618875,31.618875 C32.1270625,31.111125 32.1270625,30.28725 31.618875,29.7795 Z" id="Path"></path>
                            </g>
                        </g>
                    </g>
                </g>
            </g>
        </g>
    </g>
</svg>