<?xml version="1.0" encoding="UTF-8"?>
<svg width="48px" height="48px" viewBox="0 0 48 48" version="1.1" xmlns="http://www.w3.org/2000/svg" xmlns:xlink="http://www.w3.org/1999/xlink">
    <title>Group 11</title>
    <g id="Page-1" stroke="none" stroke-width="1" fill="none" fill-rule="evenodd">
        <g id="Home" transform="translate(-552.000000, -4658.000000)">
            <g id="Group-40" transform="translate(122.000000, 4490.000000)">
                <g id="Group-13" transform="translate(13.000000, 168.000000)">
                    <g id="Group-12-Copy" transform="translate(417.000000, 0.000000)">
                        <g id="Group-11">
                            <rect id="Rectangle" fill="#7FCE81" x="0" y="0" width="48" height="48" rx="10"></rect>
                            <g id="like" transform="translate(10.000000, 9.000000)">
                                <path d="M2.2141629,24.9142842 L0.717594692,28.4764419 C0.664255742,28.603356 0.6837881,28.7496407 0.768496847,28.8576661 C0.853205594,28.9656915 0.989511829,29.0181409 1.12371668,28.9943516 L6.55401868,28.0325282 C7.62471092,28.4235576 8.75426642,28.6237189 9.89250747,28.6241204 C14.9169972,28.6241204 19.0784467,24.8126337 19.7039217,19.8959093 C20.2968938,19.7964787 20.8797691,19.6429702 21.4454268,19.4372591 L26.8760385,20.398957 C27.0102273,20.4227326 27.1465126,20.3702898 27.2312163,20.2622839 C27.31592,20.154278 27.3354678,20.0080178 27.2821605,19.8811101 L25.7855923,16.3189524 C27.2230437,14.5407091 28.0057548,12.3122721 27.9999681,10.0145511 C27.9999681,4.49256399 23.5620806,0 18.1070619,0 C13.1353311,0 8.93597192,3.73542613 8.29614327,8.72645532 C3.59780244,9.50159537 3.33500637e-05,13.6380377 3.33500637e-05,18.6098202 C-0.00588752956,20.9075408 0.776741676,23.136016 2.2141629,24.9142842 Z M11.9465952,3.16696853 C13.6302784,1.61167639 15.8279289,0.750446277 18.1072478,0.752686024 C23.1521799,0.752686024 27.256794,4.90756899 27.256794,10.0147392 C27.2625,12.2141529 26.4870979,14.3423841 25.0719673,16.0113044 C24.980673,16.119846 24.9578166,16.271296 25.0129322,16.4024802 L26.3306606,19.5387842 L21.4759045,18.6791131 C21.4110844,18.6676091 21.3444092,18.6737332 21.2826931,18.6968596 C20.7921048,18.8807747 20.2870018,19.0222707 19.7728063,19.1198286 C19.7810659,18.9509754 19.7853195,18.7810772 19.7855673,18.6101337 C19.7871605,17.1280182 19.461765,15.6642496 18.8331382,14.3256993 L18.8795981,14.3079528 L18.8877131,14.304692 C20.5441036,13.6254332 21.8313542,12.6256086 22.6107045,11.4134528 C23.3045066,10.3341764 23.5693284,9.12860508 23.3559842,8.01609318 C23.0641537,6.55184917 22.0123003,5.60576569 20.6761738,5.60576569 C20.0233184,5.60576569 19.3242509,5.84405807 18.6407939,6.29662548 C17.9488503,5.82305072 17.2593845,5.58331603 16.5880071,5.58331603 C15.2437656,5.58331603 14.1958147,6.53993455 13.9186037,8.01954215 C13.8312156,8.4936308 13.8252432,8.97942392 13.9009489,9.45556732 C12.6393812,8.88742296 11.2737793,8.59453405 9.89300304,8.59595889 C9.61232294,8.59595889 9.33455433,8.60850059 9.05975916,8.63182816 C9.37176246,6.52801509 10.3914435,4.5976646 11.9465952,3.1667804 L11.9465952,3.16696853 Z M14.7625643,9.89559302 C14.5849199,9.33533949 14.5457609,8.73952425 14.6485206,8.16038549 C14.8591391,7.03483021 15.6024984,6.33556747 16.5877593,6.33556747 C17.1581018,6.33556747 17.7900192,6.58508469 18.4151844,7.05721715 C18.5456162,7.1556902 18.7241584,7.15683363 18.8558106,7.06003904 C19.4809758,6.60076182 20.1104154,6.35801713 20.6760499,6.35801713 C21.6574081,6.35801713 22.4051037,7.05025651 22.6266868,8.1619532 C23.0926492,10.5924728 20.9471902,12.6466786 18.6125463,13.6053665 L18.4864849,13.6536521 C17.5999046,12.0860469 16.3138335,10.7881427 14.7625643,9.8954676 L14.7625643,9.89559302 Z M9.8929411,9.34789678 C14.9379971,9.34789678 19.0424558,13.5027754 19.0424558,18.6099456 C19.0424558,23.7171158 14.9380591,27.8719944 9.8929411,27.8719944 C8.80881423,27.8714372 7.733482,27.6750716 6.71749579,27.2921287 C6.65577144,27.2690431 6.58911245,27.2628988 6.52428431,27.2743195 L1.66952829,28.1340533 L2.98707079,24.9974357 C3.0421864,24.8662515 3.01933001,24.7148015 2.92803567,24.60626 C1.51297592,22.9373599 0.737639237,20.8091716 0.743394266,18.6098202 C0.743394266,13.5029635 4.84782313,9.34789678 9.8929411,9.34789678 Z" id="Shape" fill="#FFFFFF" fill-rule="nonzero"></path>
                                <circle id="Oval" stroke="#FFFFFF" stroke-width="0.8" cx="10" cy="19" r="4"></circle>
                            </g>
                        </g>
                    </g>
                </g>
            </g>
        </g>
    </g>
</svg>